<svg xmlns="http://www.w3.org/2000/svg" viewBox="0 0 132.61 298.59"><defs><style>.cls-1{fill:#fff;}.cls-2{fill:#c8102e;}.cls-3{fill:#1d428a;}</style></defs><title>nba</title><g id="Layer_2" data-name="Layer 2"><g id="Layer_1-2" data-name="Layer 1"><path class="cls-1" d="M31,0h70.68a30.85,30.85,0,0,1,31,30.73V267.86a30.85,30.85,0,0,1-31,30.73H31A30.85,30.85,0,0,1,0,267.86V30.73A30.85,30.85,0,0,1,31,0Z"/><path class="cls-2" d="M87.16,8.51c-4.33,0-7.51,0-7.7.05L79,8.62l1,.45a15.44,15.44,0,0,1,3.69,2.21A8.93,8.93,0,0,1,85,12.81c.49.74.74,1,1.08,1.11a4.59,4.59,0,0,1,2.55,2.71,9.12,9.12,0,0,1,.74,4.19,17.82,17.82,0,0,1-2.06,8.08l-.66,1.38.48.54c1,1.15.8,2.2-1,5.08-.43.68-.91,1.49-1.07,1.81a2.82,2.82,0,0,1-1.67,1.63l-.68.22-.87,1.67c-2.11,4.05-3.71,6.21-5.07,6.84a1.88,1.88,0,0,0-.61.4,3.47,3.47,0,0,0-.43,1.79c0,1.17.08,1.24,2.34,2.35a31.4,31.4,0,0,1,5.16,3c.71.55.77.63.77,1.09s.06.54.34.71c1,.62,1.81,1.16,2.6,1.75.49.36,1.64,1.15,2.57,1.77a24.42,24.42,0,0,1,4.61,3.73c4.19,4.34,6.49,10.71,7.12,19.67.07,1,.13,3.34.13,5.22V93l.43,1.72c.44,1.77.9,4.12,1.57,8.16a56.33,56.33,0,0,0,1.27,6.1c.14.46.93,2.22,1.76,3.9a54.53,54.53,0,0,1,3.33,7.69,30.6,30.6,0,0,1,1.32,5.81c.49,4.39,1.22,7.89,1.75,8.47a7.22,7.22,0,0,0,1.58.54,15.63,15.63,0,0,1,2.2.73c.74.35.8.42,1.19,1.22l.41.85,1.44.73a11,11,0,0,1,1.79,1.06,3.21,3.21,0,0,1,.91,1.79,3.4,3.4,0,0,0,.47,1.11A22.14,22.14,0,0,1,125,147c0,.08,0-26.06.06-58.1,0-64,.09-59.49-.72-62.6a23.67,23.67,0,0,0-3.3-7.32A24,24,0,0,0,104.93,8.76c-1.11-.19-2.5-.22-13.12-.24H87.16Zm-1.8,79.21c-.62,0-5.08,2.67-7.69,4.61a3.7,3.7,0,0,0-1.56,1.74c-.63,1.27-3,7.25-5.53,13.83l-1.14,3,0,1.41c-.05,1.3,0,1.4.18,1.41a5.14,5.14,0,0,1,2,1.27c1.26,1.21,2,2.74,3,6,.79,2.6,2.72,9.33,4.34,15.18l1.64,5.92.52,1.86-.74.71-.73.7.29,1.06c.16.59.46,1.66.66,2.38,2.33,8.5,3.41,14.69,4.48,25.68.51,5.25.89,7.07,2.11,10a58.5,58.5,0,0,0,4.08,8.05,38.76,38.76,0,0,1,4.32,9,136.78,136.78,0,0,1,2.73,13.77c1.41,8.6,1.9,11.48,2.11,12.29a6.51,6.51,0,0,0,1.41,2.49,28.86,28.86,0,0,1,3,4.53c1.37,2.6,1.72,4.17,1.35,6.12-.11.59-.43,2-.71,3.13-1.32,5.41-1.57,8-1,10.51.07.31.36,2,.64,3.65.56,3.41.92,4.84,1.41,5.55a5.78,5.78,0,0,1,.84,2.56,3.26,3.26,0,0,1-.25,1.08,2.83,2.83,0,0,0-.25.74c0,.11.56,1.89,1.24,4s1.39,4.27,1.57,4.88c1.38,4.91,1.35,8.89-.09,11.75a11.84,11.84,0,0,1-4.42,4.79c-.2.13-.14.15.39.08a22.89,22.89,0,0,0,3.72-.94A23.61,23.61,0,0,0,125,272.81c.09-.84.13-18.29.13-55.63V162.77l-.4.88a28.72,28.72,0,0,1-2.43,4.08,21.61,21.61,0,0,1-7.7,6.23,21.22,21.22,0,0,1-21.47-1.85,25.55,25.55,0,0,1-4.9-4.9,21.13,21.13,0,0,1,10.65-32.38,9.3,9.3,0,0,0,1.42-.51c.15-.12-.15-.86-1.8-4.48-1.32-2.89-3-6.47-5.9-12.2a26,26,0,0,1-2.71-7.93C89,105.78,87.54,98.27,86.25,91c-.62-3.44-.58-3.32-.89-3.32Z"/><path class="cls-3" d="M50.61,8.47c-10.14,0-20.47,0-21.32.13a23.35,23.35,0,0,0-14.52,6.56A23.7,23.7,0,0,0,7.66,28.72c-.2,1.11-.21,8.77-.25,120.69,0,81.18,0,120.23.09,121.8a22.8,22.8,0,0,0,6.93,15.69,23.37,23.37,0,0,0,15.05,6.93c1.7.12,71.77.16,71.76,0a3.53,3.53,0,0,0-.76-.59,8.11,8.11,0,0,1-3.3-4.51c-.56-2.13-.53-4.54.13-10,.58-4.76.93-8.55,1-10.88l.08-2.29-.68-.73c-1.43-1.55-1.72-2.7-1.06-4.25a4.26,4.26,0,0,0,.33-1.08,22.42,22.42,0,0,0-1.29-4.14,58.32,58.32,0,0,0-3.48-6.9c-2.4-4.24-2.88-5.38-2.9-6.79a2.61,2.61,0,0,1,.79-2l.37-.42-.36-1.05c-.47-1.39-1-2.6-1.95-4.83l-.82-1.85-1.13-.67A106,106,0,0,1,70.63,219c-1.62-1.45-4.49-4.22-6.88-6.62-1.48-1.49-3.76-3.65-5.06-4.8-2.33-2-3.21-2.95-3.6-3.7a8.84,8.84,0,0,0-.92-1.19c-5.08-5.75-16.49-22.59-20.31-30-.42-.82-.78-1.5-.79-1.52l-3-.46a26.81,26.81,0,0,1-3.07-.53,14.2,14.2,0,0,1-.55-1.64c-1-3.34-2.26-6.14-5.88-13-5.17-9.81-6.52-14.76-5.76-21.19.49-4.12,1.86-10.61,2.56-12.07a14,14,0,0,1,2.87-3.54l1.38-1.37v-3H18.28c-4.43,0-5.7-.19-6.63-1-.56-.48-.66-.74-1.16-2.91a17.26,17.26,0,0,0-.7-2.25c-1-2.4-1-3.33-.36-5.47.23-.75.52-1.72.63-2.16,1-3.95,3.54-9.94,8.44-19.95.84-1.72,1.71-3.66,1.94-4.31a82.7,82.7,0,0,1,4.39-10.63c3.28-6.35,5.78-10.14,8.37-12.63A13.15,13.15,0,0,1,37,50.4c2.08-1,3.61-1.29,8.64-1.75l3.38-.31.37-.42.38-.43,1.62-.08c5.39-.26,7.33-.93,8.25-2.88.45-1,.65-2,1.13-5.92.24-2,.45-3.67.47-3.77s-.05-.17-.19-.15C60,34.88,59,32.33,59,29c0-2.68.37-3.29,2.22-3.43l1-.07,0-.94a59.48,59.48,0,0,1,.55-6.37c.53-3.12,1.23-4.65,2.91-6.32A12.71,12.71,0,0,1,70,9.11c.63-.27,1-.48.89-.54s-10.09-.11-20.23-.11ZM22.37,235.84h8l.19,1.1c.11.6.49,2.66.84,4.59s.85,4.74,1.12,6.25,1,5.53,1.62,8.94,1.42,7.8,1.77,9.78.67,3.57.7,3.54-.15-3.32-.4-7c-.09-1.36-.18-2.74-.26-4.31,0-.8-.09-1.78-.12-2.19s-.08-1.79-.13-3.06-.1-2.6-.13-2.94-.08-3.79-.13-7.66l-.07-7H40.5V279H33.18l-.6-3.28c-.34-1.8-1-5.5-1.53-8.22s-1.29-7-1.74-9.43c-1.18-6.45-1.78-9.66-2.13-11.38l-.3-1.5.06,1.19c0,.65.11,2.85.18,4.87s.15,4.37.19,5.19c0,1.08.1,19.68.07,22.35,0,.2-.21.21-2.51.21h-2.5V235.84Zm22.13,0h4.59c2.53,0,5,.06,5.41.13A6.57,6.57,0,0,1,60,240.29c.59,1.65.66,2.48.6,8.05,0,4.31-.08,5.18-.26,5.81A6.07,6.07,0,0,1,58.69,257l-.76.75.7.69a6.17,6.17,0,0,1,1.65,2.8c.27.85.28,1.05.28,6.13,0,5.87,0,6-.91,7.81a6.59,6.59,0,0,1-4.35,3.46c-.63.18-1.5.22-5.77.26l-5,.07V235.85Zm23.13,0h8.22l.07.47c0,.26.39,3.17.77,6.47s1.16,10.08,1.75,15.06c2.22,19.15,2.43,20.92,2.43,21a23.7,23.7,0,0,1-3,.1h-3l-.06-.4c0-.23-.18-1.87-.32-3.66s-.29-3.57-.33-4l-.07-.72H71.55c-2.54,0-2.55,0-2.61.29s-.17,1.8-.32,3.65-.3,3.7-.34,4.1l-.07.71H62.5v-.37c0-.31.85-7.56,1.68-14.31.11-.83.84-6.9,1.63-13.5,1.63-13.66,1.67-14,1.76-14.53l.06-.41Zm3.76,4.84s0,0-.06,0a7.42,7.42,0,0,0-.13,1.18c0,.62-.11,1.49-.14,1.94s-.24,3.06-.44,5.81S70,257,69.79,259.81s-.42,5.23-.38,5.31.6.16,2.12.16a16.09,16.09,0,0,0,2.14-.08s-.09-1.95-.3-4.25c-1.63-18.43-1.8-20.27-2-20.27Zm-21.14.64v7.05c0,3.88,0,7.07,0,7.1a11.07,11.07,0,0,0,1.59,0c1.78,0,2.21-.19,2.64-.87l.28-.45v-5.69c0-5.46,0-5.71-.25-6.11-.5-.85-.77-1-2.63-1l-1.68-.05Zm0,18.86v13.28h1.47c1.78,0,2.41-.23,2.83-1.06.25-.48.26-.7.26-5.63s0-5.14-.25-5.56c-.42-.71-1-.92-2.78-1l-1.53,0Z"/></g></g></svg>