<svg viewBox="0 0 18 40" xmlns="http://www.w3.org/2000/svg"><g fill="none" fill-rule="evenodd"><path d="m13.465 0h-9.337a4.132 4.132 0 0 0 -4.128 4.128v31.617a4.135 4.135 0 0 0 4.128 4.133h9.33a4.143 4.143 0 0 0 4.137-4.133v-31.617a4.135 4.135 0 0 0 -4.13-4.128" fill="#fff"/><path d="m13.873 38.935c-.13.016-.262.026-.396.026h-9.358a3.166 3.166 0 0 1 -3.166-3.166v-31.711a3.166 3.166 0 0 1 3.166-3.166h9.358c.175 0 .347.015.514.042a2.242 2.242 0 0 0 -2.185 1.853 2.245 2.245 0 0 0 2.328 2.63c.085.036.163.08.218.136.107.107.174.457.1.635-.074.179-.527.689-1.03 1.27-.509.588-.697.647-1.156 1.225-.22.278-.297.601-.297.601s-.443.246-.733.675c-.287.429-.685 1.263-.685 1.263s-.343.198-.514.349c-.18.159-.288.263-.55.61-.003-.287.102-.428.273-.569.132-.107.335-.623.322-1.21a.872.872 0 1 0 -.939-1.465 2.063 2.063 0 0 0 -1.263-.093c-.17.038-.339.11-.378.232-.097.036-.269.107-.455.402-.22.353-.12.565-.156.694-.03.098-.387.328-.217 1.092.07.31.056.538.081.65.03.13.088.188.217.244.083.033.155.056.241.085.121.037.179.073.203.183a.841.841 0 0 1 .007.268.163.163 0 0 1 -.082.116l-.846.056c-.51-.005-.762.166-.762.166s-.495.045-.831.262c-.327.213-.752.761-.831 1.242-.06.189-.094.335-.193.52-.063.117-.357.299-.58.547-.155-.49-.365-1.11-.38-1.538l-.002-.112a.956.956 0 0 1 .062-.401c.14-.206.21-.45.195-.703a1.616 1.616 0 0 1 .066-.526c.033-.131-.002-.221.064-.341.037-.084.096-.167.09-.261-.025-.106-.16-.105-.238-.066-.156.073-.208.257-.248.41-.036.114-.026.238-.09.273-.063.035-.17.034-.228-.042-.073-.086-.107-.166-.16-.276-.052-.11-.243-.75-.448-1.085-.053-.074-.104-.164-.196-.19-.062-.023-.15.038-.118.107.08.194.171.385.235.586-.072-.13-.167-.248-.259-.364a.736.736 0 0 0 -.25-.209c-.057-.027-.141-.003-.161.061-.015.05.027.092.05.132.142.18.267.373.37.578a.542.542 0 0 0 -.235-.144c-.047-.01-.11 0-.135.047-.012.045.018.087.042.123.108.13.227.254.315.4.069.108.134.22.204.328-.056-.037-.164-.027-.16.06.055.154.226.236.266.399.129.345.107.7.094 1.122-.013.423.076 1.55-.008 2.062-.132.8-.104 1.117.114 2.017.127.523.66.518 1.056.236.661-.47 1.336-1.471 1.492-1.682.123-.168.209-.436.338-.4.234.248.432 1.367.282 2.351-.032.213-.137.572-.116.688.02.118.13.17.13.203-.018.73-.496.902-.645 1.672-.152.794-.071 1.309.103 2.08.173.771.536 1.54.867 2.105.329.564.405.98.405.98l.276.009s.448 1.622 1.337 2.877c2.566 3.623 3.453 5.237 3.652 5.604.177.322-.051.34-.05.514 0 .174.13.326.563.6.435.273.816 1.175.978 1.678.146.447.46 1.26 1.056 1.344m2.151-36.73c.167.334.252.714.233 1.106.132.06.171.301.086.638-.105.408-.432.935-.518 1.303-.087.369-.179.832-.293 1.12s-.374.487-.417.673c-.042.182-.133.664-.736 1.537-.527.764-1.235 1.51-1.235 1.51s-.072.283-.276.59c-.385.577-.628.914-.73 1.258-.103.345-.305.747-.575 1.139-.254.368-.403.563-.407.843-.009.605-.358 1.79-.54 2.253-.47 1.193-.627 2.39-.442 3.198.225.986.962 1.817.528 3.605-.36 1.484-.655 2.07-.655 2.07s.689.654.97 1.408c.385 1.041.583 3.576.583 3.576s.118 0 .207.035c.09.038.215.8.44 1.16.224.358 1.096.932 1.14 1.28.042.341-.183.91-.217 1.347a2.474 2.474 0 0 0 -.01.353c.043.755.478 1.405.586 1.758.122.407.747.68.917 1.278.144.51.186 1.29-.274 1.584a3.167 3.167 0 0 0 2.254-3.032v-31.711c0-.704-.23-1.354-.619-1.88" fill="#fa4d00"/><path d="m9.837 36.231h.453l-.23-.434zm.637.348h-.816l-.162.314h-.514l.783-1.455h.59l.8 1.455h-.515zm-2.986-.256v.203h.849c.118 0 .16-.043.16-.108 0-.058-.042-.095-.16-.095zm.9-.41c0-.07-.051-.104-.175-.104h-.725v.203h.725c.124 0 .175-.037.175-.099zm.551.578c0 .29-.24.404-.605.404h-1.278v-1.455h1.156c.395 0 .616.107.616.383a.312.312 0 0 1 -.209.308c-.006.002-.008.006-.008.01 0 .006.004.008.008.008.183.025.32.14.32.342zm-2.676-.065v-.984h.434v1.455h-.615l-.82-.984v.984h-.432v-1.455h.61zm-2.95-.554-.297 1.025h-.581l-.466-1.455h.476l.285 1.025.286-1.025h.593l.287 1.025.284-1.025h.476l-.465 1.455h-.593l-.284-1.025z" fill="#fff"/></g></svg>