<?xml version="1.0" encoding="utf-8"?>
<!-- Generator: Adobe Illustrator 26.1.0, SVG Export Plug-In . SVG Version: 6.00 Build 0)  -->
<svg version="1.1" id="Layer_2_1_" xmlns="http://www.w3.org/2000/svg" xmlns:xlink="http://www.w3.org/1999/xlink" x="0px" y="0px"
	 viewBox="0 0 400 400" style="enable-background:new 0 0 400 400;" xml:space="preserve">
<style type="text/css">
	.st0{fill:#2C5235;}
	.st1{fill:#FEE11A;}
	.st2{fill:#78BE20;}
	.st3{fill:#FFFFFF;}
</style>
<g>
	<path class="st0" d="M341.3,152.3L200.4,49.6L59.7,152.3l-0.2,56.3c0,54.8,27.7,96.1,58.6,118.2c28.8,20.5,59.5,24.6,82.2,24.6
		s53.7-4.1,82.5-24.6c31-22.1,58.6-63.5,58.6-118.2L341.3,152.3z"/>
	<path class="st1" d="M332,208.6l-0.2-51.7L200.4,60.7L69.1,157l-0.2,51.7c-0.1,35.1,13.5,68.2,38.2,93.1
		c24.7,24.9,58.5,38.8,93.3,38.8s68.6-13.9,93.4-38.8C318.5,276.8,332.1,243.7,332,208.6z M76.2,160.6l35.3-25.8
		c12.9,12.7,23.6,29.3,30.1,46.9c2.4-0.5,4.7-0.9,7-1.4c-6.8-18.6-17.9-36.1-31.4-49.7l83.1-61l83.2,61
		c-13.5,13.6-24.6,31.2-31.4,49.7c2.3,0.4,4.7,0.9,7,1.4c6.6-17.6,17.2-34.1,30.1-46.9l35.3,25.8l0.2,48.1H76L76.2,160.6z
		 M288.7,296.7c-13.8-13.9-24.9-32.1-31.2-51.1h-7.5c6.4,20.8,18.5,40.8,33.5,56c-22.7,20.5-52.8,31.8-83.2,31.9
		c-30.4,0-60.4-11.4-83.1-31.9c15-15.1,27.1-35.2,33.5-56h-7.5c-6.2,19.1-17.4,37.3-31.2,51.1c0,0,0,0,0,0
		C90.5,275,78,246.7,76.2,216.3h248.4C322.9,246.7,310.3,275,288.7,296.7C288.7,296.7,288.7,296.7,288.7,296.7z"/>
	<polygon class="st2" points="198,245.2 212.9,245.2 206,261.2 215,261.2 190.5,297.9 196.9,269.7 187.9,269.7 	"/>
	<path class="st3" d="M206.9,152.3c0-0.5-1.4-0.7-2.9-0.7l-3.6-55.9l-3.5,55.9c-1.5,0-2.9,0.2-2.9,0.7l0,5.9h12.9L206.9,152.3z
		 M278.8,196.3c-18.1-10-55.5-9.7-55.5-17.1c0-3.7,7.6-7.6,7.6-7.6s-0.1-1.8-2.4-2.9c-3.5-1.6-12.7-3.1-28.2-3.1
		c-13.3,0-24.5,1.5-28,3.1c-2.3,1-2.4,2.9-2.4,2.9s7.6,3.8,7.6,7.6c0,7.4-37.4,7.2-55.5,17.1h156.5l0,0L278.8,196.3z M138,227.5
		l-11.5,7.9h147.9l-11.5-7.9H138z M170.8,245.2l-7.3,0l1.9,8.1c4.1,17.9,10.4,48.7,12.8,78.2c2.3,0.4,4.7,0.8,7.1,1.1
		c-2.7-33.2-10.6-70.3-14.4-86.9L170.8,245.2z M228.7,251.9c-4.4,18.4-11.1,50.3-13.6,80.7c2.4-0.3,4.8-0.6,7.2-1
		c2.6-29.4,9.1-60.1,13.3-78l1.9-8.1l-7.3,0L228.7,251.9z"/>
</g>
</svg>
