<?xml version="1.0" encoding="utf-8"?>
<!-- Generator: Adobe Illustrator 27.4.1, SVG Export Plug-In . SVG Version: 6.00 Build 0)  -->
<svg version="1.1" id="Layer_1" xmlns="http://www.w3.org/2000/svg" xmlns:xlink="http://www.w3.org/1999/xlink" x="0px" y="0px"
	 viewBox="0 0 500 500" style="enable-background:new 0 0 500 500;" xml:space="preserve">
<style type="text/css">
	.st0{fill:#FFFFFF;}
	.st1{fill:#9EA2A2;}
	.st2{fill:#363B37;}
	.st3{fill:#4891CE;}
	.st4{fill:#E3173E;}
</style>
<path class="st0" d="M250.1,495c-44.8,0-88-16.2-121.7-45.5c-33.4-29-55.3-69-61.7-112.6L18.1,5h463.7l-48.3,331.7
	c-6.4,43.7-28.4,83.7-61.8,112.8C338,478.8,294.8,495,250.1,495L250.1,495z"/>
<path class="st1" d="M250.1,485.2c-42.4,0-83.3-15.3-115.3-43.1c-31.6-27.5-52.4-65.4-58.5-106.7L29.5,14.8h441.1l-46.7,320.5
	c-6.1,41.4-26.9,79.3-58.5,106.8C333.4,469.9,292.5,485.2,250.1,485.2L250.1,485.2z"/>
<path class="st2" d="M250.1,471c-39,0-76.6-14.1-105.9-39.6c-29.1-25.3-48.2-60.1-53.8-98L45.9,29h408.2l-44.3,304.3
	c-5.6,38-24.7,72.8-53.8,98.1C326.7,456.9,289,471,250.1,471L250.1,471z"/>
<path class="st3" d="M224.3,340.4v-0.7H212v0.7c0,17.2-8.7,32.7-23.2,41.8c-7.9-6.7-14.8-14.7-20.2-23.8h-14.1
	c18.1,35.5,55.2,58.7,95.4,58.7s77.3-23.2,95.4-58.7h-14.1c-5.4,9-12.2,17-20.1,23.7c-14.4-9.1-23-24.6-23-41.7v-0.8h-12.3v0.8
	c0,19.8,9.2,37.9,24.9,49.5c-13.2,8.4-28.4,13.6-44.4,14.7V324h-12.3v80.6c-16-1-31.3-6.2-44.6-14.6
	C215,378.4,224.3,360.2,224.3,340.4L224.3,340.4z"/>
<path class="st4" d="M250.1,440.3c-53.8,0-101.5-33-120.9-81.9h-13.2c20.1,56.1,73.6,94.3,134.1,94.3s114-38.2,134.1-94.3H371
	C351.5,407.3,303.8,440.3,250.1,440.3L250.1,440.3z"/>
<path class="st4" d="M149.3,223.7l1.8-4.6l18.7-48.9l-5.8-39l16.3,11.9l4.6-11.9l-77.5-56.5l23.8,162l-16.7,43.7l-32.5-220h130.2
	l4.7-12.3H67.5l41.5,280.8L149.3,223.7L149.3,223.7L149.3,223.7z M123.9,102l26.2,19.1l7.1,47.8l-17,44.3L123.9,102L123.9,102z"/>
<path class="st4" d="M283.1,48.1l4.7,12.3h130.3l-32.6,220L369,237.3l23.8-162.5l-77.7,56.6l4.6,11.9l16.3-11.9l-5.8,38.9l17.7,46.4
	l2.7,7.1h0l40.2,105.1l41.6-280.8L283.1,48.1L283.1,48.1z M342.9,168.9l7.2-47.7l26.3-19.2L360,213.7L342.9,168.9L342.9,168.9z"/>
<path class="st0" d="M166.6,88.3l27.1,19.7l14,10.2l6.1,4.4L131,339.9l59.8-0.1l11.5-33.5h95.4l11.6,33.3l59.8-0.1l-83.5-216.3
	l6.7-4.8l14-10.2l27.2-19.8h-61.3l-15.4-39.9L250,27.7l-0.6,1.8l0-0.1l-22.5,58.9L166.6,88.3L166.6,88.3z M249.7,168.2l30.9,88.8
	h-61.4L249.7,168.2z"/>
</svg>
