<?xml version="1.0" encoding="utf-8"?>
<!-- Generator: Adobe Illustrator 26.1.0, SVG Export Plug-In . SVG Version: 6.00 Build 0)  -->
<svg version="1.1" id="Layer_2_1_" xmlns="http://www.w3.org/2000/svg" xmlns:xlink="http://www.w3.org/1999/xlink" x="0px" y="0px"
	 viewBox="0 0 400 400" style="enable-background:new 0 0 400 400;" xml:space="preserve">
<style type="text/css">
	.st0{fill:#00A8E1;}
	.st1{fill:#002B5C;}
	.st2{fill:#FFFFFF;}
	.st3{fill:#C4D600;}
</style>
<g>
	<path class="st0" d="M379.6,123.2l4.9-8.4l-9,3.9c-3,1.3-6.5,2.4-10,3.3c18.1-13,29.5-42.8,29.5-42.8l-7.1,4.4l-2.2,1.3
		c-0.3,0.2-34.6,20.6-80.4,36.6c-11.3,4-21.4,6.8-30.2,9.3c-27.8,7.8-44.6,12.5-43.4,37.9c0.4,9.5-1.3,16.6-5.1,20.5
		c-1.2,1.2-2.5,2-3.7,2.6c-0.5-0.6-0.7-1.8-0.7-4.4c0.1-3.3,4.4-14.1,4.4-14.1c4.8-12.1,2.6-20.8,2.6-20.8s-1.8-2.8-4.5-5.5
		c7.6-10.3,3.7-22.2,3.5-22.7l-0.8-2.4l-2.6,0.3c-7.5,0.8-14.1,3.2-18.6,6.7c-1.1-1.2-2.1-1.9-2.2-2l-4.3-3.1l-0.7,5.1
		c-2.4-0.8-5-1-5-1c-4.1-2.6-9.7-5-17.3-5.8l-2.6-0.3l-0.8,2.4c-0.2,0.5-4.2,12.5,3.5,22.7c-2.7,2.7-4.5,5.5-4.5,5.5
		s-2.2,8.7,2.6,20.8c0,0,4.3,10.8,4.4,14.1c0,2.6-0.2,3.8-0.7,4.4c-1.3-0.5-2.6-1.4-3.8-2.6c-3.8-3.9-5.6-11-5.1-20.5
		c1.2-25.4-15.6-30.1-43.4-37.9c-8.9-2.5-18.9-5.3-30.2-9.3c-45.8-16-80.1-36.4-80.4-36.6l-2.2-1.3L6,79.2c0,0,11.4,29.9,29.5,42.8
		c-3.5-0.9-7.1-2-10-3.3l-9-3.9l4.9,8.4c0.4,0.7,8,13.6,20.9,22.4c-1.2,0-2.4,0-3.6,0c-4.4,0-7.9-0.2-10.7-0.6l-9.3-1.3l6.5,6.7
		c0.6,0.6,12.1,12.4,24.5,18.3c-3.5,1-7.6,2-11.5,2.4l-6.7,0.8l4.8,4.6c0.5,0.5,10.4,9.8,27.9,17.3c-8.2,2.1-13.5,3.2-13.5,3.2
		c3.9,4.6,8.9,11,15.8,18.9h-0.1c41.5,47,72.1,65.8,103.8,87.3c8.9,6,30.2,18.6,30.2,18.6s21.6-12.6,30.5-18.6
		c31.7-21.4,62.3-40.2,103.8-87.3h-0.1c6.9-7.9,12-14.3,15.8-18.9c0,0-5.2-1.1-13.5-3.2c17.4-7.4,27.4-16.8,27.9-17.3l4.8-4.6
		l-6.7-0.8c-4-0.5-8.1-1.4-11.5-2.4c12.4-6,23.9-17.7,24.5-18.3l6.5-6.7l-9.3,1.3c-2.7,0.4-6.3,0.6-10.7,0.6c-1.2,0-2.4,0-3.6,0
		C371.6,136.8,379.2,123.9,379.6,123.2L379.6,123.2z"/>
	<path class="st1" d="M376.8,121.6c-9.8,4.3-25.7,6.5-25.7,6.5c21.7-11.8,33.2-33.8,36.3-40.5c-0.1-0.1-0.1-0.1-0.1-0.1
		s-34.3,20.5-81,36.9c-46.7,16.3-72.9,13.8-71.5,44.1c0.9,19.3-6.8,25.1-12.6,26.8c-2.3-1.3-3.4-2.1-3.4-8c0.1-3.4,2.4-9.5,4.5-14.7
		c0.1-0.1,0.1-0.3,0.1-0.4c0,0,0-0.1,0-0.1c4.5-11.2,2.6-18.5,2.6-18.5c-0.2-0.4-0.5-0.8-0.8-1.2c-2.3-3.2-5.4-5-5.4-5
		c9.4-9.5,5.1-22.2,5.1-22.2c0,0,0,0-0.1,0l0,0c-9.6,1.1-15.7,4.7-19.5,8.1c-1.6-2.6-3.5-3.9-3.5-3.9s-0.3,2.2-1.4,3.6
		c-1.1-1.4-1.4-3.6-1.4-3.6s-1.9,1.3-3.5,3.9c-3.8-3.3-9.9-7-19.5-8.1l0,0c0,0,0,0-0.1,0c0,0-4.4,12.7,5.1,22.2c0,0-3,1.7-5.4,5
		c-0.3,0.4-0.6,0.8-0.8,1.2c0,0-1.9,7.2,2.6,18.5c0,0,0,0.1,0,0.1c0,0.1,0.1,0.3,0.1,0.4c2.1,5.2,4.4,11.3,4.5,14.7
		c0,6.6-1.8,6.8-3.4,8c-5.8-1.7-13.5-7.5-12.6-26.8c1.4-30.3-24.8-27.8-71.5-44.1c-46.7-16.3-81-36.9-81-36.9s0,0-0.1,0.1
		c3.1,6.7,14.6,28.7,36.3,40.5c0,0-15.9-2.2-25.7-6.5c0,0,11.4,19.6,29.5,26.6c0,0-16.5,1.4-26.2,0c0,0,17.6,18.2,31.9,20.5
		c0,0-10.8,4.4-21,5.6c0,0,13.1,12.5,35.7,19.9c-8.8,2.8-17.8,4.8-17.8,4.8s36.9,45.9,84.1,79.1c21.1,14.8,37.3,26.7,60,40.1l0,0
		l0,0c22.7-13.3,38.9-25.2,60-40.1c47.3-33.2,84.1-79.1,84.1-79.1s-9-2-17.8-4.8c22.6-7.4,35.7-19.9,35.7-19.9
		c-10.1-1.2-21-5.6-21-5.6c14.3-2.3,31.9-20.5,31.9-20.5c-9.7,1.4-26.2,0-26.2,0C365.4,141.2,376.8,121.6,376.8,121.6L376.8,121.6z"
		/>
	<path class="st0" d="M154.2,278.8c5.3,4,10.8,7.8,16.2,11.3c1.4-2.9,3.3-5.5,5.4-7.8L154.2,278.8L154.2,278.8z"/>
	<path class="st0" d="M246.8,278.8l-21.9,3.5c2.2,2.4,4,5,5.5,7.9C235.8,286.7,241.4,282.9,246.8,278.8L246.8,278.8L246.8,278.8z"/>
	<path class="st2" d="M215.9,299.4c2-1.3,4.1-2.7,6.2-4.2c-2.6-2.6-6.1-4.9-10.9-6.3C211.6,292.8,213.5,296.2,215.9,299.4
		L215.9,299.4L215.9,299.4z"/>
	<path class="st3" d="M202.3,287.5v20.4c3.2-1.9,6.8-4.1,10.6-6.5c-2.8-3.8-5.2-8.2-5.4-13.3C205.9,287.7,204.2,287.6,202.3,287.5
		L202.3,287.5L202.3,287.5z"/>
	<path class="st2" d="M193.6,288c-0.2,5.2-2.6,9.5-5.4,13.3c3.8,2.4,7.4,4.7,10.6,6.5v-20.4C196.9,287.6,195.2,287.7,193.6,288
		L193.6,288L193.6,288z"/>
	<path class="st3" d="M178.9,295.2c2.1,1.4,4.2,2.8,6.2,4.2c2.4-3.2,4.3-6.6,4.7-10.5C185.1,290.3,181.5,292.6,178.9,295.2
		L178.9,295.2L178.9,295.2z"/>
	<path class="st2" d="M202.3,283.9c1.9,0.1,3.7,0.2,5.3,0.5c0.4-2.6,1.5-4.7,3.2-6.2c0.2-0.1,0.3-0.3,0.5-0.4
		c-2.8-1.1-5.9-1.9-9-2.1V283.9L202.3,283.9z"/>
	<path class="st2" d="M189.8,285.2c-0.3-1.9-0.9-3.3-2-4.2c-0.7-0.6-1.5-0.9-2.2-1.1c-4.8,2.9-8.7,7.2-11.1,12.2
		c0.5,0.4,1,0.7,1.5,1.1C179.2,289.9,183.6,286.9,189.8,285.2L189.8,285.2L189.8,285.2z"/>
	<path class="st3" d="M215.4,279.9c-0.7,0.2-1.5,0.5-2.2,1.1c-1.1,0.9-1.7,2.3-2,4.2c6.2,1.7,10.6,4.7,13.8,8c0.5-0.4,1-0.7,1.5-1.1
		C224.1,287,220.2,282.8,215.4,279.9L215.4,279.9L215.4,279.9z"/>
	<path class="st3" d="M190.2,278.3c1.7,1.5,2.7,3.5,3.2,6.2c1.7-0.3,3.5-0.4,5.3-0.5v-8.1c-3.2,0.2-6.2,0.9-9.1,2.1
		C189.8,278,190,278.1,190.2,278.3L190.2,278.3L190.2,278.3z"/>
	<path class="st0" d="M159.8,178.5c-1.3-9.1,1-15.9-1.8-20.9c-5-8.7-11.8-10.7-32.4-16.7c-20.6-6-45.2-12.1-83.5-30.5
		c0,0,18.6,15.6,44.2,23.8c25.7,8.2,29.7,9.7,45.8,14c16.1,4.3,22.1,9.7,22,17.1c-0.1,5.9-2,26.4,12.8,35.8
		C163.5,195,160.7,187.1,159.8,178.5L159.8,178.5z"/>
	<path class="st0" d="M275.4,140.9c-20.6,6-27.4,8.1-32.4,16.7c-2.7,4.6-0.8,10.9-1.6,19.1c0,0,0,0,0,0c-0.6,9.3-3.6,17.9-7.4,24.4
		c14.8-9.4,12.8-29.9,12.8-35.8c-0.1-7.4,5.9-12.8,22-17.1c16.1-4.3,20.1-5.8,45.8-14c25.7-8.2,44.2-23.8,44.2-23.8
		C320.6,128.8,296,134.9,275.4,140.9L275.4,140.9z"/>
	<path class="st3" d="M142.2,182.2L142.2,182.2c0-0.1,0-0.1,0.1-0.1C142.2,182.1,142.2,182.2,142.2,182.2L142.2,182.2z M172.9,216.9
		c0,0-0.6-0.4-1.6-1.2c-2.7-2-8.1-6.4-12.9-12.3c-3.6-4.9-9.5-14.5-9.6-24.8c-0.1-14.9,2.1-19.4-18.1-25.2
		c-20.3-5.8-52.7-14.9-72-20.2c0,0,10.1,8.7,32.2,14.8c22,6.1,43.4,13.4,43.4,13.4s-58-4.3-75-7.3c0,0,8.5,6.4,36.4,10
		c27.8,3.6,44.2,4.2,44.2,4.2s-54.3,7.2-74.6,7c0,0,9.3,4.5,36.3,3.1c25.8-1.3,37.8-3.5,38.9-3.7c-1.1,0.9-20.2,15-64,25.2
		c0,0,18.8,0.8,35-4.3c12.9-4,28.3-12.4,30.6-13.6c-0.7,1.1-10.5,17.1-48.6,37.9c2-0.5,34-9,50.7-29.7c-2.2,6.8-8.6,21.6-26.8,43.5
		c0,0,20.6-13.6,29.8-33.3c0.7,6.9,1.9,22.4,0.1,33.1c0,0,7.3-11.5,6.3-27.6c3.9,3.7,9.4,7.4,17.1,10
		C171.4,216.4,172.1,216.7,172.9,216.9L172.9,216.9z"/>
	<path class="st3" d="M258.8,182.2c0-0.1-0.1-0.1-0.1-0.1C258.8,182.1,258.8,182.1,258.8,182.2L258.8,182.2L258.8,182.2z
		 M341.7,154.2c-16.9,3-75,7.3-75,7.3s21.4-7.3,43.4-13.4c22-6.1,32.2-14.8,32.2-14.8c-19.3,5.3-51.8,14.4-72,20.2
		c-20.3,5.8-18.1,10.3-18.2,25.2c0,10.3-5.9,19.8-9.5,24.8c-5.1,6.2-10.9,10.8-13.3,12.6c-0.6,0.5-1.1,0.8-1.2,0.9
		c0.5-0.2,1.1-0.3,1.6-0.5c8.1-2.6,13.7-6.4,17.7-10.2c-1,16.1,6.3,27.6,6.3,27.6c-1.7-10.7-0.5-26.3,0.1-33.1
		c9.2,19.7,29.8,33.3,29.8,33.3c-18.1-21.9-24.5-36.7-26.7-43.5c16.6,20.7,48.7,29.1,50.7,29.7c-38.1-20.8-47.9-36.7-48.6-37.9
		c2.2,1.2,17.7,9.6,30.6,13.6c16.3,5,35,4.3,35,4.3c-43.8-10.2-62.8-24.3-63.9-25.2c1,0.2,13,2.4,38.9,3.7c27,1.4,36.3-3.1,36.3-3.1
		c-20.3,0.2-74.6-7-74.6-7s16.4-0.6,44.2-4.2C333.2,160.6,341.7,154.2,341.7,154.2L341.7,154.2z"/>
	<path class="st2" d="M231.2,253.6c-2.5-3.5-5-3.5-6.3-12.3l-9.1,9.7v0v0c1.3-14.3-0.4-30.4-1.7-39.9l-2.4,6.8c0,0-2.9,3.3-11.3,2.6
		l-0.2,0l-0.2,0c-8.3,0.7-11.3-2.6-11.3-2.6l-2.4-6.8c-1.3,9.5-3.1,25.6-1.7,39.9l-9.1-9.7c-1.3,8.7-3.8,8.7-6.3,12.3
		c-2,2.9-3.9,6.6-6,13.1c1.6,4.4,4.4,9,4.5,9.2l11.1,2.2c7.8-5.1,15.1-6.8,21.4-6.8c6.3,0,13.6,1.7,21.4,6.8l11.1-2.2
		c0.1-0.2,2.9-4.8,4.5-9.2C235.1,260.2,233.2,256.4,231.2,253.6L231.2,253.6z"/>
	
		<rect x="164.1" y="275.2" transform="matrix(0.4405 -0.8977 0.8977 0.4405 -155.2508 301.2218)" class="st2" width="0" height="0"/>
	<rect x="236.3" y="275.2" transform="matrix(0.951 -0.309 0.309 0.951 -73.4722 86.4994)" class="st2" width="0" height="0"/>
	<path class="st3" d="M247.3,272.9c-0.2-3.4-2.9-10.4-7.9-17.6c0.8,4.1-2,11-2.1,10.8c-0.9-9.1-2.4-13.5-4-16.4v0
		c-0.6-1-1.5-2.4-2-2.8c-2.3-2.3-4.4-8-4.4-8l-2,2.4l0,0c1.3,8.7,3.8,8.7,6.3,12.3c2,2.9,3.9,6.6,6,13.1c-1.6,4.4-4.4,9-4.5,9.2
		c0,0,0,0,0,0l3.7-0.8l0,0L247.3,272.9L247.3,272.9z"/>
	<path class="st3" d="M169.2,253.6c2.5-3.5,5-3.5,6.3-12.3l-2-2.4c0,0-2.1,5.7-4.4,8c-0.6,0.5-1.4,1.8-2,2.8v0
		c-1.6,2.9-3.1,7.2-4,16.4c0,0.2-2.9-6.8-2.1-10.8c-4.9,7.3-7.6,14.3-7.9,17.6l11,2.3l0,0l3.7,0.8c0,0,0,0,0,0
		c-0.1-0.2-2.9-4.8-4.5-9.2C165.3,260.2,167.1,256.4,169.2,253.6L169.2,253.6z"/>
	<path class="st3" d="M186.3,211.1L186.3,211.1l-2.8-8.1c-3.5,12-4,19.5-4,26.1c0,10.6,2.9,18.4,5.1,21.9
		C183.2,236.7,185,220.6,186.3,211.1L186.3,211.1z"/>
	<path class="st3" d="M215.8,251L215.8,251c2.2-3.5,5.1-11.3,5.1-21.9c0-6.6-0.5-14.1-4-26.1l-2.8,8.1c0,0,0,0,0,0
		C215.4,220.6,217.2,236.7,215.8,251L215.8,251z"/>
	<path class="st3" d="M189.1,146.7c-1.6,1.5-3.6,3.6-4.3,5.4c3.2-4.3,7.3-6,7.3-6c-0.9-6.4-7.7-12-11.3-14.6
		C180.1,140.1,185.7,144.7,189.1,146.7L189.1,146.7z"/>
	<path class="st3" d="M189.8,196.2c0,0,1.2-1.4,2.4-3.7c3.9-6.6,1.8-14.5,1-17.8c-0.4-1.9-0.6-3.1-0.6-3.1s-0.9-1.3-2.7-2.3
		c-1.9-1-2.5-1.4-3.2-2.8c-0.7-1.5-0.3-3.2-0.3-3.2c-0.7,0.5-1.7,2-1.7,2c-1.5-2-0.2-3.3-0.2-3.3c-1.3-2.6-1.3-3.9-1.3-3.9
		c-1.3-1.1-2.7-2.5-2.7-2.5s0,0.2,0,0.7c-0.2,2.4-0.4,11.3,5.4,14.8c0,0-0.4,3.8,1.6,9.5c0.1,0.3,0.8,2.2,0.8,2.2
		c0.6-1.3,1-4.2,1.1-5C190.3,180.2,192,186.3,189.8,196.2L189.8,196.2z"/>
	<path class="st3" d="M216.2,152.1c-0.7-1.8-2.7-3.9-4.3-5.4c3.4-2,8.9-6.7,8.4-15.3c-3.6,2.6-10.4,8.2-11.3,14.6
		C208.9,146.1,212.9,147.8,216.2,152.1L216.2,152.1z"/>
	<path class="st3" d="M200.5,212.5c-1.8,0-4.1-0.4-5.6-0.9l-0.8-0.3l0.6,2.1l0.1,0.1c0.1,0.1,1.8,1.6,5.7,1.6c3.9,0,5.7-1.5,5.7-1.6
		l0.1-0.1l0.6-2.1l-0.8,0.3C204.6,212.1,202.3,212.5,200.5,212.5L200.5,212.5z"/>
	<path class="st3" d="M220.5,156.3c0-0.4,0-0.7,0-0.7s-1.4,1.4-2.7,2.5c0,0,0,1.3-1.3,3.9c0,0,1.3,1.3-0.2,3.3c0,0-1.1-1.6-1.7-2
		c0,0,0.5,1.7-0.3,3.2c-0.7,1.5-1.3,1.8-3.2,2.8c-1.9,1-2.7,2.3-2.7,2.3s-0.2,1.1-0.6,3.1c-0.8,3.4-2.9,11.2,1,17.8
		c1.1,2.4,2.4,3.8,2.4,3.8v0c-2.3-9.9-0.5-16,0.5-18.4c0.1,0.8,0.5,3.8,1.1,5c0,0,0.7-1.8,0.8-2.2c2-5.7,1.6-9.5,1.6-9.5
		C220.9,167.6,220.7,158.7,220.5,156.3L220.5,156.3z"/>
	<path class="st3" d="M209.5,202C209.5,202,209.5,202,209.5,202c-0.1,0-0.1,0.1-0.1,0.1c-1.2,1.6-2.5,1.5-2.5,1.5s1-1.2-0.7-2.4
		c0,0-1.4,1.4-3.5,2.3c0,0-1.4,0.6-2.3,0.6c-0.8,0-2.3-0.6-2.3-0.6c-2.1-0.8-3.5-2.3-3.5-2.3c0,0,0,0,0,0c-1.7,1.1-0.6,2.4-0.6,2.4
		s-1.3,0.1-2.5-1.5c0,0,0-0.1,0-0.1c0,0,0,0,0,0c-1.8-1.4-3-3.8-3-3.8c-0.8,1.2,3.9,9.5,3.9,9.5c2,1.3,5.4,2,8.1,2v0c0,0,0,0,0,0
		c0,0,0,0,0,0v0c2.7,0,6-0.7,8.1-2c0,0,4.7-8.3,3.9-9.5C212.5,198.2,211.3,200.5,209.5,202L209.5,202z"/>
	<path class="st2" d="M216.2,152.1C216.2,152.1,216.2,152.1,216.2,152.1C216.2,152.1,216.2,152.1,216.2,152.1c-3.2-4.3-7.3-6-7.3-6
		c0.9-6.4,7.7-12,11.3-14.6c0,0-8,2-11.6,6.3l-1.1,1.3c0.5,3.8-0.3,8.6-4.1,14.5c-3,4.5-0.8,7.9-0.8,7.9s-3.4-0.2-5.7-4.7
		c-2.9-5.7,1.9-10.4-2.1-16.1l-1.4-1.7c-2.2-2.5-4.6-4.2-6.7-5.4c-3.1-1.5-6-2.2-6-2.2c0,0,0,0,0,0c3.6,2.6,10.4,8.2,11.3,14.6
		c0,0-4,1.7-7.2,5.9c0,0-0.1,0.1-0.1,0.1c0,0-3,1.7-4.3,3.5l0,0c0,0,1.4,1.4,2.7,2.5c3.8,3.3,5.8,3.8,8.1,6.5c3.3,3.9,1.4,7,1.4,7
		s0.2,1.1,0.6,3.1c0.8,3.4,2.9,11.2-1,17.8c-1.1,2.4-2.4,3.7-2.4,3.7l-1.3,2c0,0,1.2,2.3,3,3.8c0,0,0,0,0,0
		c-1.3-2.1,2.9-4.5,2.9-4.5c2,1.3,3.5,5.3,3.8,6.1c0,0,1.5,0.6,2.3,0.6c0.9,0,2.3-0.6,2.3-0.6c0.1-0.1,1.6-4.6,3.8-6.1
		c0,0,4.2,2.4,2.9,4.5c0,0,0,0,0,0c1.8-1.4,3-3.8,3-3.8l-1.3-2c0,0-1.2-1.4-2.4-3.8c-3.9-6.6-1.8-14.5-1-17.8
		c0.4-1.9,0.6-3.1,0.6-3.1s-1.9-3.1,1.4-7c2.3-2.7,4.3-3.2,8.1-6.5c1.3-1.1,2.7-2.5,2.7-2.5C219.1,153.8,216.2,152.1,216.2,152.1
		L216.2,152.1z"/>
</g>
</svg>
