<?xml version="1.0" encoding="utf-8"?>
<!-- Generator: Adobe Illustrator 26.1.0, SVG Export Plug-In . SVG Version: 6.00 Build 0)  -->
<svg version="1.1" id="Layer_2_1_" xmlns="http://www.w3.org/2000/svg" xmlns:xlink="http://www.w3.org/1999/xlink" x="0px" y="0px"
	 viewBox="0 0 400 400" style="enable-background:new 0 0 400 400;" xml:space="preserve">
<style type="text/css">
	.st0{fill:#FFFFFF;}
	.st1{fill:#1D1160;}
	.st2{fill:#BEC0C2;}
	.st3{fill:#061922;}
	.st4{fill:#E56020;}
</style>
<g>
	<path class="st0" d="M221.3,289.4l-19.4,6c-2.3,0.7-6.5,2-11,2c-4,0-8.1-1-11.3-4.3c-1.8-1.9-2.9-4.1-3.4-6.3L176,286l-6.2,8.7
		c0.1,0.1,0.1,0.3,0.2,0.4l0.3-0.4l5.6-7.8c0.6,2.3,1.6,4.5,3.5,6.5c7.1,7.3,18.4,3.7,22.7,2.4l19.4-6c5.3-1.6,19.9-6.2,26.9-20
		c0.3-0.6,0.6-1.3,0.9-2c-0.1,0-0.2,0-0.4,0C242.3,282.9,226.8,287.7,221.3,289.4z"/>
	<path class="st0" d="M244.4,235.9l0.1,0.4L244.4,235.9c-3,0.5-6,0.9-9,1.1l-0.2,0l-0.1,0.2c-0.9,2.7-1.9,5.5-2.8,8.2
		c0.1,0,0.3,0,0.4-0.1v0c0.9-2.7,1.8-5.4,2.7-8c3-0.2,6-0.6,9-1.1c20.5-3.6,38.3-13.5,51.7-27.4c0.8-1,1.5-2,2.3-3
		C284.8,221.1,266.1,232.1,244.4,235.9z"/>
	<path class="st0" d="M132.8,181.8c1.6,0,3.1,0.2,4.5,0.5c2.2,0.6,4.1,1.6,5.8,3.1l0.6-0.4c-4-8-6.9-16.6-8.5-25.8
		c-1-5.5-1.4-11-1.4-16.4c0-45,32.3-84.8,78.1-92.8c5.4-0.9,10.7-1.4,16-1.4c-1.6-0.1-3.3-0.1-4.9-0.1c-0.4,0-0.9,0-1.4-0.1
		c-0.4,0-0.9,0.1-1.3,0.1c-0.2,0-0.3,0-0.5,0c-2.4,0.2-4.8,0.5-7.2,0.9c-0.3,0-0.5,0.1-0.8,0.1c-51.5,9-86,58.1-77,109.7
		c1.6,9.3,4.6,17.9,8.5,25.9c-1.7-1.5-3.6-2.5-5.8-3.1c-0.2,0-0.3-0.1-0.5-0.1c-0.1,0-0.3-0.1-0.5-0.1c-3.1-0.7-6.8-0.5-10.9,0.6
		c0,0.1,0.1,0.2,0.1,0.3C128.4,182.2,130.7,181.8,132.8,181.8z"/>
	<g>
		<path class="st1" d="M249.4,267.5c-0.1,0.1-0.1,0.2-0.2,0.4c-0.3,0.7-0.6,1.3-0.9,2c-0.6,1.5-1.4,3-2.2,4.4
			c-8.3,13.5-26.2,19.6-31.3,21.2l-19.4,6c-2.3,0.7-6.5,2-10.9,2c-4,0-8.1-1-11.3-4.3c-1.2-1.2-2-2.6-2.6-3.9
			c-0.1-0.1-0.1-0.3-0.2-0.4l-0.3,0.4l-0.2,0.3l-1.9,2.7c-1.3,1.8-2.5,3.3-3.8,4.8c-0.1,0.1-0.2,0.2-0.3,0.3
			c-0.8,0.9-1.5,1.7-2.3,2.4c-0.6,0.8-1.2,1.5-1.9,2.2c-6.6,7.3-14,10.9-22.1,12.4c-1.7,0.3-3.2,0.5-4.7,0.5
			c-6.6,0-10.4-3.1-12.2-5.2c-1.5-1.7-2.9-4.1-3.5-7.5c0-0.2-0.1-0.4-0.1-0.5l-0.3,0.5l-0.3,0.5l-4.3,6.6c-0.4,0.7-1.4,2.2-3,4
			c-0.1,0.1-0.2,0.2-0.3,0.4c-0.7,0.8-1.5,1.6-2.5,2.5c-0.6,0.7-1.2,1.4-1.9,2c-4.2,4.3-10.1,8.9-19.4,11.8l-16.7,5.2l-17.4,5.4
			l5.5-17.3l32.5-103.5l-12.5-6.4L55,208.2l-0.3,0.3l-0.3,0.3l-11.3,10.9l21.7,11.1l12.2,6.2L44.7,340.1l-5.7,18l18-5.6l16.7-5.2
			c12.6-3.9,23.2-11,32.6-24.3c0.7,1.7,1.6,3.1,2.5,4.1c2.3,2.6,7.5,6.7,17.2,4.9c8.7-1.6,23.1-8.7,34-23c0.4,0.6,0.9,1.1,1.4,1.7
			c7.1,7.2,18.4,3.7,22.7,2.4l19.4-6c5.7-1.8,34.9-13.5,44-33.9c0.7-1.6,1.3-3.2,1.7-4.9c0-0.1,0.1-0.2,0.1-0.3l0-0.2L249.4,267.5
			L249.4,267.5C249.4,267.5,249.4,267.5,249.4,267.5z M107.9,320.4c0,0.1-0.1,0.1-0.1,0.2C107.8,320.5,107.9,320.5,107.9,320.4z
			 M107.1,321.4c-0.1,0.1-0.1,0.2-0.2,0.3C106.9,321.6,107,321.5,107.1,321.4z"/>
		<path class="st1" d="M244.5,236.3c-3,0.5-6,0.9-9,1.1c-0.9,2.6-1.8,5.4-2.7,8v0c0.1,0,0.3,0,0.4-0.1c0,0,0,0,0,0
			c0.8-0.1,1.6-0.2,2.4-0.4c23-4,43.4-15.8,58.3-33.3c0.8-0.9,1.6-1.9,2.3-2.8C282.8,222.7,265,232.7,244.5,236.3z"/>
		<path class="st1" d="M125.7,182.1C125.6,182.1,125.6,182.1,125.7,182.1c0,0.1,0.1,0.2,0.1,0.3c0,0,0,0,0,0c0,0,0,0,0,0
			c4.1-1.1,7.7-1.3,10.9-0.6c0.2,0,0.3,0.1,0.5,0.1c0.2,0,0.3,0.1,0.5,0.1c-0.1-0.1-0.1-0.3-0.2-0.4c-3.1-6.9-5.4-14.3-6.8-22.1
			c-1-5.5-1.4-11-1.4-16.4c0-44.1,31.1-83.3,75.5-92.3c0.9-0.2,1.7-0.3,2.6-0.5c1.8-0.3,3.5-0.6,5.3-0.8c2.4-0.4,4.8-0.7,7.2-0.9
			c0.2,0,0.3,0,0.5,0c0.4,0,0.9-0.1,1.3-0.1c0.1,0,0.2,0,0.3,0c-1.8-0.1-3.5-0.1-5.3,0c-5,0.1-10.1,0.6-15.2,1.5
			c-53.8,9.4-89.9,60.9-80.5,114.7C121.9,170.6,123.6,176.5,125.7,182.1z"/>
	</g>
	<path class="st2" d="M104.3,323.9c0.7-0.7,1.3-1.4,1.9-2c-3.3,3-8.1,6.2-14.6,8.2l-16.7,5.2l-18,5.6l5.7-18l32.5-103.2l-12.2-6.2
		l-21.7-11.1l-0.3,0.3l-5.8,5.6l-0.3,0.3l21.5,11l12.2,6.2L56,328.8l-5.6,18l18-5.6l16.7-5.2c10.8-3.3,17.1-9.1,21.4-14
		C105.8,322.7,105.1,323.3,104.3,323.9z"/>
	<path class="st2" d="M249.4,267.5c-0.1,0.1-0.1,0.2-0.2,0.4c-0.3,0.7-0.6,1.3-0.9,2c-7,13.8-21.6,18.4-26.9,20l-19.4,6
		c-4.3,1.3-15.6,4.8-22.7-2.4c-1.9-2-3-4.2-3.5-6.5l-5.6,7.8c0,0.1,0.1,0.3,0.2,0.4l-0.3,0.4c0.6,1.3,1.5,2.7,2.6,3.9
		c7.1,7.3,18.4,3.7,22.6,2.4l19.4-6c5.7-1.8,26.9-9,33.7-25.7c0.2-0.6,0.5-1.2,0.7-1.8c0-0.1,0.1-0.2,0.1-0.3l0-0.2L249.4,267.5
		l0.2-0.6C249.6,267,249.5,267.2,249.4,267.5z"/>
	<path class="st2" d="M161.5,305.8c-5.1,4.9-10.5,7.7-17.4,9c-9.7,1.9-15-2.2-17.2-4.9c-2-2.3-3.9-6-3.9-11.3l-6,9l-0.3,0.5
		c0,0.2,0.1,0.4,0.1,0.5c0.7,3.2,2,5.6,3.5,7.3c2.3,2.6,7.5,6.7,17.2,4.9c8.9-1.7,17.1-5.9,24.2-14.7c0.7-0.9,1.4-1.7,2.1-2.7
		C163,304.2,162.3,305,161.5,305.8z"/>
	<path class="st2" d="M212.5,49.1c-1.8,0.2-3.5,0.5-5.3,0.8c-51.5,9-86,58.1-77,109.7c1.3,7.7,3.6,15.1,6.7,22
		c0.1,0.1,0.1,0.3,0.2,0.4c0.2,0,0.3,0.1,0.5,0.1c2.2,0.6,4.1,1.6,5.8,3.1c-4-8-6.9-16.7-8.5-25.9c-9-51.5,25.4-100.6,77-109.7
		c0.3,0,0.5-0.1,0.8-0.1c2.4-0.4,4.8-0.7,7.2-0.9c0.2,0,0.3,0,0.5,0C217.6,48.6,215.1,48.8,212.5,49.1z"/>
	<path class="st3" d="M296.2,208.8c-13.4,13.9-31.2,23.8-51.7,27.4c-3,0.5-6,0.9-9,1.1c-0.9,2.6-1.8,5.4-2.7,8v0
		c-0.9,2.7-1.8,5.3-2.6,7.8l8.5-2.6l16.6-5.2l0,0l0.1,0l-4.1,17c-0.4,1.6-0.9,3.1-1.4,4.5c-0.1,0.2-0.2,0.4-0.2,0.6
		c-0.1,0.1-0.1,0.2-0.2,0.4c-0.3,0.7-0.6,1.3-0.9,2c-7,13.8-21.6,18.4-26.9,20l-19.4,6c-4.3,1.3-15.6,4.8-22.7-2.4
		c-1.9-2-3-4.2-3.5-6.5l-5.6,7.8l-0.3,0.4l-0.2,0.3l-1.9,2.7c-1.3,1.8-2.5,3.3-3.8,4.8c-0.1,0.1-0.2,0.2-0.3,0.3
		c-0.8,0.9-1.5,1.7-2.3,2.4c-5.1,4.9-10.5,7.7-17.4,9c-9.7,1.9-15-2.2-17.2-4.9c-2-2.3-3.9-6-3.9-11.3l-6,9l-0.3,0.5l-0.3,0.5
		l-4.3,6.6c-0.4,0.7-1.4,2.2-3,4c-0.1,0.1-0.2,0.2-0.3,0.4l0,0c-0.3,0.3-0.5,0.7-0.8,1c0,0.1-0.1,0.1-0.1,0.2
		c-0.2,0.3-0.5,0.6-0.7,0.8c-0.1,0.1-0.1,0.2-0.2,0.3c-0.1,0.1-0.2,0.3-0.4,0.4c-0.7,0.6-1.4,1.2-2.1,1.8c-3.2,2.5-7.3,4.9-12.6,6.5
		l-16.7,5.2l-18.7,5.8l5.9-18.7l32.4-102.9l-12-6.1l-21.7-11.1l-0.1-0.1l0.3-0.3l23.3-7.2l39.7-12.2c0.6-0.2,1.1-0.3,1.7-0.5l0,0
		c4.1-1.1,7.7-1.3,10.9-0.6c0.2,0,0.3,0.1,0.5,0.1c0.2,0,0.3,0.1,0.5,0.1c2.2,0.6,4.1,1.6,5.8,3.1c-4-8-6.9-16.7-8.5-25.9
		c-9-51.5,25.4-100.6,77-109.7c0.3,0,0.5-0.1,0.8-0.1c2.4-0.4,4.8-0.7,7.2-0.9c-2.5,0.1-5,0.3-7.5,0.6c0.1,0,0.1,0,0.2,0
		c2.6-0.3,5.2-0.5,7.8-0.6c0.4,0,0.9-0.1,1.3-0.1c0.1,0,0.2,0,0.3,0c47.7-3.2,91.1,30,99.5,78.2
		C326.9,157.6,316.5,187.8,296.2,208.8z"/>
	<path class="st4" d="M312.1,167.7c-5.4,15.8-15.1,29.5-28.2,39.7c-12.8,9.9-28,16-44.1,17.6l-0.6,0.1l0.2-0.5l3.1-9.2l0.6-1.9
		l0.2,0.5l0.5-0.2l-0.7-0.2c3.6-10.6,2.7-18.7-2.6-24.2c-5.6-5.8-14.2-5.8-18.6-4.5c-11.6,3.4-15.7,8-21.2,15l-0.8,1l0.1-1.3
		c0.6-6.3-0.9-11.3-4.5-15c-5.8-6-14.2-5.4-17.9-4.2c-3.7,1.1-6.9,2.5-9.8,4c-2.4,1.3-8.3,1.4-9.3-0.3
		c-12.9-21.5-15.6-47.4-7.6-71.1c7.3-21.5,22.6-38.9,43-48.9c20.4-10,43.5-11.5,65-4.2c21.5,7.3,38.9,22.6,48.9,43
		C318,123.1,319.5,146.1,312.1,167.7z"/>
	<path class="st3" d="M314.1,103.8c2.2,3.7,1.8,3.7,1.8,3.7l0.1,0.1l28.1-33c-164.4,15-246,79-246,79s39.6-19.4,65.1-27.3
		C218.3,109.3,308.3,93.9,314.1,103.8z"/>
	<path class="st3" d="M320.6,134c2,3.5,2.2,5,2.2,5.3l31.8-35.7C181.1,119.4,94.9,187,94.9,187s41.8-20.5,68.8-28.8
		C220.6,140.6,313.8,122.5,320.6,134z"/>
	<path class="st3" d="M317.8,165.9l-1.4,10.1l0.1,0l36.9-40.8h0C178.7,151.1,102,212.7,102,212.7s32.9-17.1,59.6-25.3
		C218.8,169.9,311,154.3,317.8,165.9z"/>
	<path class="st2" d="M344.2,74.6l7.7-9c-168.8,20.7-253.9,88-253.9,88s0.3-0.1,0.7-0.4C105.5,148,187.1,88.9,344.2,74.6z"/>
	<path class="st2" d="M362,95.2C185.7,115.8,94.9,187,94.9,187s86.2-67.6,259.6-83.4L362,95.2z"/>
	<path class="st2" d="M361,126.8c-104.6,12.5-175.4,39.8-215.9,60.2c0.1,0.1,0.2,0.3,0.3,0.4c39.7-18.9,107.7-43.1,207.9-52.2h0
		L361,126.8L361,126.8z"/>
	<path class="st0" d="M109.4,211.6l-20.2-10.3l40.6-12.5c2.1-0.6,4.1-1.1,5.9-1.1l0,0c1.7,0,3.2,0.4,4.3,1.5l0,0
		c1.1,1.1,1.7,2.7,1.7,5l0,0c0,2.1-0.5,4.9-1.6,8.4l0,0l-17,54.3l34.1-49.2c7.2-10.5,11.9-17.6,26.2-22.1l0,0
		c0.5-0.1,1.5-0.3,2.7-0.3l0,0c1.6,0,3.6,0.3,5.2,1.5l0,0c1.6,1.2,2.8,3.3,2.8,6.7l0,0c0,2.3-0.5,5.2-1.8,8.8l0,0l-15.3,44.3
		l30.3-39.9c7.7-10.1,9.7-13.6,20.3-16.7l0,0c0.5-0.1,1.5-0.3,2.8-0.3l0,0c1.7,0,3.9,0.3,5.7,1.6l0,0c1.8,1.3,3.1,3.5,3.1,7.2l0,0
		c0,2.3-0.5,5-1.7,8.5l0,0l-19.5,57.4l26.9-8.4l-0.2,0.6c-3.4,14.1-17.1,18.7-23.2,20.6l0,0l-19.4,6c-3.5,1.1-6.2,1.6-8.3,1.6l0,0
		c-2.1,0-3.7-0.5-4.7-1.5l0,0c-1-1-1.4-2.4-1.4-4.1l0,0c0-2.3,0.7-5,1.8-8.1l0,0l12.8-37.4l-39.4,55.5c-5.8,8.1-10.8,11.4-17.8,12.7
		l0,0c-1.1,0.2-2.1,0.3-3,0.3l0,0c-2.4,0-4.2-0.7-5.3-2.1l0,0c-1.1-1.3-1.6-3.1-1.6-5.1l0,0c0-2.3,0.6-4.9,1.5-7.5l0,0l19.3-55.8
		l-49.2,74.7c0,0-4.5,7.7-15.2,11.1l0,0l-17.4,5.4L109.4,211.6L109.4,211.6z M217.6,265.3l-0.3-0.1L217.6,265.3L217.6,265.3z"/>
</g>
</svg>
