<?xml version="1.0" encoding="utf-8"?>
<!-- Generator: Adobe Illustrator 26.1.0, SVG Export Plug-In . SVG Version: 6.00 Build 0)  -->
<svg version="1.1" id="Layer_2_1_" xmlns="http://www.w3.org/2000/svg" xmlns:xlink="http://www.w3.org/1999/xlink" x="0px" y="0px"
	 viewBox="0 0 400 400" style="enable-background:new 0 0 400 400;" xml:space="preserve">
<style type="text/css">
	.st0{fill:#FFFFFF;}
	.st1{fill:#002D62;}
	.st2{fill:#FFD520;}
	.st3{fill:#E03A3E;}
</style>
<g>
	<path class="st0" d="M188.5,188.9c10.8-3.3,0.1,19.1-13.9,17.8C176.4,199.3,181.5,191,188.5,188.9z"/>
	<path class="st1" d="M358.2,172.3c-2-4.9-7-8.1-12.3-7.8c0,0-0.9,0-1.6,0.1c0.9-2.2,1.3-4.5,1.3-6.8c0-4.9-2-8.3-3.2-9.9
		c-2.2-2.9-5.2-5-8.7-6c-22.6-51.4-74-87.4-133.7-87.4c-80.5,0-146,65.5-146,146c0,17.3,3,33.8,8.5,49.2c-1.9,4-3,8.4-3.1,12.8
		c0,8.3,3.4,16.2,9.6,22.3c5.2,5,11.8,8.2,19,9.3c26.8,32,67,52.4,111.9,52.4c73.2,0,134-54.1,144.4-124.5
		c12.3-10,15.8-21.9,16.4-30.7c0.1-1.1,0.1-2.2,0.1-3.2C361,179.5,358.5,173.1,358.2,172.3z"/>
	<path class="st2" d="M325.5,196.2h9.2c0.1,1.4,0.1,2.9,0.1,4.3c0,74.3-60.4,134.7-134.7,134.7c-7.4,0-14.6-0.6-21.7-1.8
		c-3.4,0.9-7,1.5-10.7,1.5c-13.2,0-24.9-6.4-32.2-16.2c-41.7-22.9-70.1-67.3-70.1-118.1c0-74.3,60.4-134.7,134.7-134.7
		c60.3,0,111.4,39.8,128.6,94.5H319C319,160.4,302,188.4,325.5,196.2z"/>
	<path class="st3" d="M319.9,191.6V177h6C314.8,117.6,262.6,72.5,200,72.5c-70.6,0-128.1,57.4-128.1,128c0,70.6,57.4,128,128.1,128
		c70.6,0,128-57.4,128-128c0-3-0.1-6-0.3-8.9H319.9z"/>
	<path class="st1" d="M200,77c-68.1,0-123.5,55.4-123.5,123.5C76.5,268.6,131.9,324,200,324c68.1,0,123.5-55.4,123.5-123.5
		C323.5,132.4,268.1,77,200,77z"/>
	<path class="st3" d="M200,286.5c-20.5,0-39.4-7.2-54.2-19.2h-7c16.1,14.8,37.6,23.8,61.2,23.8c40.3,0,74.5-26.4,86.2-62.8h-4.8
		C269.9,262.1,237.7,286.5,200,286.5z"/>
	<path class="st3" d="M118.2,173.8c11.2-34.4,43.7-59.4,81.8-59.4c44.7,0,81.6,34.3,85.7,78h4.6c-4.1-46.2-43-82.6-90.3-82.6
		c-40.7,0-75.2,27-86.6,63.9H118.2z"/>
	
		<rect x="106.6" y="135.1" transform="matrix(0.5261 -0.8504 0.8504 0.5261 -71.107 161.0987)" class="st2" width="4.8" height="18.5"/>
	<polygon class="st2" points="116.1,119.6 119.7,116.4 133.8,119.1 133.9,119 126.4,110.6 130,107.4 142.2,121.2 138.6,124.4 
		124.5,121.8 124.5,121.8 132,130.3 128.4,133.5 	"/>
	<path class="st2" d="M155.6,97.5l1.1-0.4c2.9-1.2,5.6-0.2,6.8,2.8c1.3,3.4-0.3,5.7-3,6.8l-1,0.4L155.6,97.5 M156.5,112.7l6.3-2.5
		c4.8-1.9,7.2-7.3,5.3-12.1c-1.9-4.8-7.4-7-12.2-5.1l-6.3,2.6L156.5,112.7z"/>
	<polygon class="st2" points="192.1,103.1 187.3,103.6 185.4,85.2 190.2,84.7 	"/>
	<path class="st2" d="M220.3,97.9l-3.9-0.7l3-5.5l0,0L220.3,97.9 M220.9,101.7l0.6,3.4l5.1,0.9l-3.6-19.4l-5.2-0.9l-10.2,17l5,0.9
		l1.8-2.9L220.9,101.7z"/>
	<polygon class="st2" points="250.1,95.2 254.3,97.7 256.2,111.9 256.3,111.9 261.9,102.1 266.1,104.5 256.8,120.5 252.6,118.1 
		250.7,103.9 250.7,103.8 245,113.7 240.8,111.2 	"/>
	<path class="st2" d="M281.2,134.7l-2.6-3.1l5.8-2.3l0,0L281.2,134.7 M279.2,138.1l-1.7,3l3.3,3.9l9.6-17.3l-3.4-4l-18.7,6.5
		l3.3,3.9l3.3-1.1L279.2,138.1z"/>
	<path class="st0" d="M350.9,175.3c-0.7-1.8-2.6-3-4.6-2.9h-3.2c0,0-2.3,0.4-3,1.8c-1.8,3.4-10.2,13.7-13.7,11.8
		c-3.9-2,7.7-19.6,7.7-19.6c2.8-3.4,3.7-6.4,3.7-8.7c0-2.6-1.1-4.5-1.7-5.2c-2.5-3.4-7.5-4.6-11.8-2.8c-1.3,0.6-3.5,0.4-5.2,0
		c-0.5-3.7-2.1-8.5-6.1-10.6c-1.6-0.8-4.8-1.9-9.1,0.6c-3,1.8-4.6,4.4-5,7.6c0,0.5-0.1,0.9-0.1,1.4c0,3.4,1.5,6.9,4.1,9.5
		c0.2,0.2,0.3,0.3,0.5,0.4c-1.3,3.2-2.9,6.3-4.5,9.1c0.1-0.7,0.1-1.4,0.1-2.1c0-3-0.9-6.1-3.6-8.3c-4.7-4-10.9-3.3-13.8-2.2
		c-7.5,2.5-22.6,10.8-28.3,26.5c1.2-4.5,0.7-7.6-0.3-9.7c-1.2-2.5-3.1-3.4-3.1-3.4c-2.4-1.5-5.4-1.8-8.9-0.6
		c-8.3,2.7-11.5,12.9-11.5,12.9c-4,10.4,0.9,17,0.9,17c-0.2,0.5-3.9,5.9-3.9,5.9l-2.2-20.5c-0.3-3.3-2-5-3.3-5.8
		c-2.1-1.4-4.6-1.3-6.2-0.8c0,0-11.9,3.8-11.9,3.8c-1.9,0.6-3.2,2.4-3.2,4.4v4.7c-0.4-0.4-0.8-0.8-1.3-1.2
		c-4.7-3.9-10.9-3.3-13.8-2.2c-5.6,1.9-11.4,5.2-16.1,9.2c-0.2-0.8-0.6-1.6-1.2-2.2c-1.2-1.2-3.1-1.7-4.7-1.1c0,0-7.3,2.4-13.6,4.5
		c2.6-8.9,6.6-17,14.4-21.5c1.4-0.8,2.3-2.4,2.3-4c0-0.1,0-0.3,0-0.3c12.3-3.1,19.7-9.8,24.1-15.6c6.5-8.6,7.7-17.2,7.8-17.6
		c0.2-1.4-0.2-2.8-1.2-3.8c-0.9-1-2.3-1.6-3.7-1.5l-2.3,0.1c-1.5,0.1-2.9,0.9-3.7,2.2c-6.8,10.7-22.6,13.7-41,17.1
		c-12,2.3-24.5,4.6-36.2,9.4c-32.4,13.4-31,33.9-30.7,36.2c0.8,11.7,11.6,20.7,24.3,20c2.3-0.1,4.6-0.6,6.7-1.3
		c-0.3,1-0.5,2.3-0.5,3.6c0,2.2,0.6,4.8,2.2,7.6c1.1,1.9,3.4,2.8,5.4,2.1l4.6-1.4c-6.3,24.1-11.3,29-11.6,29.3c-2.1,2-6.2,3.1-8.1,2
		c-0.8-0.4-1.3-1.1-1.4-1.8c-0.2-0.9,0.2-1.8,0.9-2.7c1-1.1,2.5-2,4.1-2.2c1.9-0.3,3.4-1.8,3.8-3.7c0.4-1.9-0.4-3.8-2.1-4.9
		c-4.1-2.6-9-4.1-14-4.2c-7.2-0.2-14.1,2.4-19,7.1c-4.4,4.2-6.9,10-7,15.9c0,12.7,11,23.4,24.8,24.1c0.4,0.1,7.7,0.9,16.6-2.7
		c8-3.2,19.1-10.9,25.8-28.8c5.4-12.1,7.7-25,9.9-37.6c0,0,0.2-1,0.4-2.1c2.3-0.7,7.7-2.4,11.9-3.8c-1.5,4-2.2,8.2-2.2,12.5
		c0,1.1,0.1,2.3,0.2,3.5c0.1,1.1,1.3,10.6,8.9,15c1,0.6,2.1,1,3.2,1.4c-33,13.8-40,30.1-40.4,31.2c-0.2,0.6-0.3,1.2-0.3,1.7
		c0,1.2,0.5,2.4,1.4,3.3l5.1,5c0.1,0.1,0.2,0.2,0.4,0.4c-0.8,2.9-1.2,6-1.2,9.2c0,19.8,16.1,35.9,35.9,35.9
		c19.9,0,35.9-16.1,35.9-35.9c0-5.2-1.1-10.2-3.1-14.7c0.8-0.3,1.5-0.7,2-1.4l1.5-1.7c1.2-1.4,1.3-3.5,0.6-5.1c0,0-0.5-1.3,0.7-3.6
		c2.6-4.7,14.7-16.7,70.1-26.3c24.1-4.6,44.8-12.6,60-23.1c13.5-8.8,17.1-20.1,17.7-28.1C353.6,182.1,351,175.6,350.9,175.3
		 M127.3,203.1c-1.7,0.5-3.5,1.1-4.1,1.3c1.5-3.1,2.2-6.5,2.1-10c-0.2-4.3-1.8-8.4-4.6-11.9c-1.2-1.4-3-2-4.8-1.5
		c-1.8,0.5-3.1,1.9-3.4,3.7c-0.2,1.1-0.9,2.1-1.8,2.8c-1,0.7-2.2,1.1-3.3,0.9c-0.5-0.1-1.1-0.3-1.4-0.9c-0.5-0.9-0.1-3,1.7-4.6
		c0.1-0.1,0.1-0.1,0.2-0.2c0.1-0.1,8.8-8.4,35.1-10C136.9,178.4,131.2,187.8,127.3,203.1z"/>
	<path class="st1" d="M191.2,235.8c4.3-3.6,9.7-9.2,15.4-17.6c0.3,2.5,1,11.6,1.2,13.8C199.3,233.8,191.2,235.8,191.2,235.8z"/>
	<path class="st1" d="M312.7,201c-4.3-2.1-7.2-5.6-8.5-9.9c-0.3-1.2-0.5-2.5-0.6-3.7c-6.4,9.8-13.4,16.2-16.4,18.7
		c-2.3,2-6.5,4.9-11.2,6.7c-7.6,2.7-12.9,1.1-15.9-0.8c-3.9-2.5-6-6.3-7.2-9.5c-3.3,1.3-6.2,2.1-8.7,2.5
		c-6.3,11.5-13.8,19.3-20.9,24.6c7.2-1.1,15-2,23.4-2.7c42.2-3.6,65.9-15,78.3-23.9c0,0,0.4-0.2,0.8-0.6
		C318.4,203.7,313.6,201.4,312.7,201z"/>
	<path class="st3" d="M103,212.4c10.2-0.5,18.1-8.5,17.6-17.8c-0.2-3.5-1.5-6.6-3.6-9.2c-0.4,2.1-1.6,4.2-3.7,5.7
		c-3.8,2.8-8.9,2.4-11.3-1c-2.2-3.1-0.8-8.1,2.4-10.9c0.3-0.3,11.4-11.5,46.4-11.7c37.8-0.2,42.2-30.9,42.2-30.9l-2.3,0.1
		c-12.8,20-49.7,16.1-79.3,28.3c-30.7,12.6-27.9,31.4-27.9,31.4C84.1,205.9,92.8,213,103,212.4z"/>
	<path class="st3" d="M161.1,205.5l3-9.1l-21.7,7.1c3-14.1,7.5-26.2,18.6-32.6l-0.1-2.4c-7.5,0.8-22.2,6.6-29.7,38.3l-6.7,2.1
		c0,0-15.3,4.7-8.8,15.8l2.1-0.7c-0.3-0.9-1.3-4.5,3.8-6.1l7.8-2.5c-8.6,39.9-16.2,45-16.2,45c-3.4,3.2-9.5,4.8-13.5,2.6
		c-4.3-2.4-5.1-7.6-1.8-11.5c1.7-2.1,4.3-3.4,7-3.9c-3.3-2.1-7.3-3.4-11.6-3.5c-11.6-0.3-21.1,7.8-21.2,18.3
		c-0.1,10.4,9.1,19.2,20.7,19.5c0,0,25.5,3.2,37.5-28.6c5.9-13.1,8-27.9,10.5-41.5L161.1,205.5z"/>
	<path class="st3" d="M346.5,177.1l-2.8,0c-4,7.1-13.7,16.8-20.3,12.8c-8.1-4.8,6.8-26.1,6.8-26.1c6.4-7.6,0.4-11.7-4.2-9.7
		c-4.6,2-11.3-0.7-11.3-0.7s-0.3-13.9-8.5-9.7c-4.4,2.3-3.1,8.2-0.1,11.2c1,0.9,2,1.5,2.9,1.7c-2.9,9-9.2,18.5-11.3,21.6
		c0,0-14.1,19-23.4,18.3c-3.6-0.2-5-4-4.6-8.8c6.2,0.7,12.7-2,17.9-7.6c1.7-1.8,3.2-4.1,4.3-6.2c0.5-0.7,4.8-9.3,0.4-13
		c-4-3.3-9.3-1.4-9.3-1.4c-7.9,2.6-20.3,10.5-25.2,22.8c-1,2.6-1.5,5.5-1.7,7.9c-2.7,1.4-9,4.7-13,4.6c3.5-6.5,6.4-15.5,5.9-19.4
		c-0.4-3.2-3.1-4.2-6.4-3.2c-3.5,1.1-6.2,3.9-8.2,8.3c-1.6,3.7-2.4,7.3-1.8,10.7c0.2,1.4,1.1,4.1,3.3,6.1c-3.6,6.7-8.3,12.7-13,17.8
		l-3.3-31.6c-0.4-3.6-3.4-2.7-3.4-2.7l-11.9,3.8v2.9l1.1-0.3c0,0,2.5-0.8,2.8,1.9l0.6,6c-2.3,4.3-18.8,34.3-31.4,32.2
		c-3.6-0.6-5-4-4.6-8.8c6.2,0.7,12.7-2,17.9-7.6c1.7-1.8,3.2-4.1,4.3-6.2c0.5-0.7,4.8-9.3,0.4-13c-4-3.3-9.3-1.4-9.3-1.4
		c-10.7,3.5-28.8,15.5-26.9,36.8c0,0,2,19,20.4,10.6c0,0,14.6-5.2,30.1-34l2.8,26.8c9.2-4.7,20.1-13.7,28.6-30.3
		c3,0,7.2-0.9,14.9-4.6c0,0.3,0,0.5,0,0.5s1.9,17.9,18.2,12c4-1.6,7.7-4,9.8-5.8c4.9-4.1,12-11.5,17.7-21.4c0,0,5.2-8.8,9.7-18.7
		c1,0.3,2.7,0.8,4.6,0.9c-5.5,9.1-14.2,27.1-1.4,33.5c0,0,9.4,5.3,23-5.8c-0.9,9.3-10.2,15.7-10.2,15.7
		c-15.4,11-41.1,21.3-80.6,24.7C145.4,240.1,130.7,277,130.7,277l3.8,3.8c5.5-12.9,18.2-21.9,33.1-21.9c12.1,0,22.8,6,29.3,15.1
		c0.7,0.6,1.3,1.1,2,1.7l1.5-1.8c0,0-12.3-21.5,74.1-36.5c25.9-4.9,45-13.2,58.2-22.4C355.9,200,346.5,177.1,346.5,177.1
		 M284.8,165.3c11.1-3.4,0.1,19.7-14.3,18.4C272.3,176,277.6,167.5,284.8,165.3 M187.9,196.2c11.1-3.4,0.1,19.7-14.3,18.4
		C175.5,207,180.8,198.4,187.9,196.2 M238.7,191.9c-0.4-0.6-0.7-1.3-0.8-2.2c-0.2-1.8,0.1-3.7,0.9-5.6c0.7-1.5,1.5-2.6,2.6-3.1
		c0,0,0.6-0.3,1-0.2c0.5,0.2,0.5,0.8,0.5,0.8C242.8,183.6,240.7,187.6,238.7,191.9z"/>
	<path class="st1" d="M135.7,294.8c0-17.6,14.3-31.9,32-31.9c17.6,0,32,14.3,32,31.9c0,17.7-14.3,32-32,32
		C150,326.8,135.7,312.5,135.7,294.8z"/>
	<path class="st0" d="M162.4,317.4c-0.9-2-1.1-4-0.4-6c-2.9-1.1-5.6-2.3-8-3.7c-0.9,4.2-1.1,8.2-0.9,11.8c0.1,0.1,0.3,0.2,0.4,0.2
		c4.4,2.5,9.3,3.7,14,3.7C165.5,321.8,163.5,319.8,162.4,317.4z"/>
	<path class="st0" d="M190.4,277.6c1.3,3.7,2.1,7.8,1.4,11.8c-0.7,4-3,7.3-6.7,9.7c-2.8,1.8-6.1,3-9.4,4.2
		c-5.3,1.9-10.3,3.8-12.1,7.5c8.7,3,18.7,4.3,24.9,2.9c0.4-0.1,0.7-0.2,1-0.3c1.2-1.4,2.2-2.8,3.1-4.5
		C198.3,298.6,197,286.4,190.4,277.6z"/>
	<path class="st0" d="M143.7,305c1.4-0.3,2.5-1.1,3.4-2.5c-4.2-4.3-5.5-8.8-7.2-14.7c-1.5,5.7-1.1,11.7,0.9,17.1
		C141.8,305,142.8,305.1,143.7,305z"/>
	<path class="st0" d="M149.9,287.5c0.5,5.4,0.9,10.5-1.3,14.7c1.3,1.2,2.8,2.4,4.7,3.6c1.9-7.7,7.7-24.6,23.7-38
		c-8.5-2.9-17.7-1.7-24.9,3.1c-1.2,1.9-2.2,4.2-2.4,6.9C149.4,281,149.6,284.3,149.9,287.5z"/>
	<path class="st3" d="M153,307c-2-1.3-3.6-2.5-5-3.8c-1.1,1.6-2.4,2.5-4.1,2.8c-0.8,0.1-1.7,0.1-2.6,0c2.2,5,5.7,9.4,10.6,12.6
		C151.8,315.1,152.1,311.2,153,307z"/>
	<path class="st3" d="M163.1,311.8c-0.5,1.7-0.4,3.4,0.4,5.1c1.2,2.7,3.8,4.9,6.1,6.4c6.8-0.5,13.4-3.4,18.3-8.4
		C181.6,316.1,171.7,314.8,163.1,311.8z"/>
	<path class="st3" d="M154.3,306.5c2.4,1.4,5.1,2.7,8.1,3.8c2-4.3,7.3-6.2,12.8-8.2c3.2-1.2,6.5-2.4,9.1-4.1
		c3.4-2.2,5.5-5.2,6.2-8.9c0.9-4.8-0.7-10.1-2.7-14.3c-1.8-1.9-3.9-3.5-6.3-4.8c-1.1-0.6-2.3-1.2-3.4-1.7
		C161.8,281.8,156.1,299,154.3,306.5z"/>
	<path class="st3" d="M147.8,301.4c1.8-3.8,1.4-8.7,1-13.8c-0.3-3.2-0.6-6.6-0.3-9.9c0.2-2,0.7-3.7,1.4-5.3c-2.8,2.2-5.2,5-7.1,8.3
		c-0.9,1.6-1.6,3.1-2.2,4.8l0.3,1.3C142.6,292.9,143.9,297.3,147.8,301.4z"/>
</g>
</svg>
