<?xml version="1.0" encoding="utf-8"?>
<!-- Generator: Adobe Illustrator 26.1.0, SVG Export Plug-In . SVG Version: 6.00 Build 0)  -->
<svg version="1.1" id="Layer_2_1_" xmlns="http://www.w3.org/2000/svg" xmlns:xlink="http://www.w3.org/1999/xlink" x="0px" y="0px"
	 viewBox="0 0 400 400" style="enable-background:new 0 0 400 400;" xml:space="preserve">
<style type="text/css">
	.st0{fill:#A0A2A3;}
	.st1{fill:#0C233F;}
	.st2{fill:#266092;}
	.st3{fill:#79BC43;}
	.st4{fill:#FFFFFF;}
</style>
<g>
	<path class="st0" d="M337.4,154.9l-0.7-2c-2.2-6.3-4.8-12.4-7.8-18.3c10.3-20.8,53.1-74.6,53.1-74.6S357.5,78.8,343.4,86
		c0.3-1.5,2.5-14.9,2.5-14.9s-20.2,18.5-39.1,31.7c-26.9-29.4-65.4-47.2-106.9-47.2c-16.1,0-32.1,2.7-47.5,8
		C76.9,89.9,36.8,172.5,63,248c20.2,58.2,75.2,97.4,136.8,97.4c16.1,0,32.1-2.7,47.5-8.1C322.1,311.4,362.2,229.9,337.4,154.9
		L337.4,154.9z"/>
	<g>
		<g>
			<path class="st1" d="M329,157.7L329,157.7l-0.6-1.9c-2.1-6-4.6-11.7-7.4-17.3c1.1-7.5,3.7-14.2,8.2-21.2
				c6.6-10.3,23.8-29,23.8-29c-6.4,5.1-22.5,13.7-22.5,13.7c1.1-1.6,5.3-10.8,5.3-10.8c-3.4,3.7-23.5,18.6-23.5,18.6
				c-2.4,0.9-5.2,1.9-8.3,3.1c-25.4-30.2-63.2-48.7-104.2-48.7c-15.2,0-30.2,2.5-44.6,7.6C84.3,96.5,46.7,174.2,71.3,245.1
				c19,54.7,70.7,91.5,128.6,91.5c15.2,0,30.2-2.5,44.6-7.6c35.3-12.3,62.3-37.7,77.6-68.9c0.2,0.2,0.4,0.3,0.4,0.3
				c0.2-0.8,0.4-1.6,0.6-2.4C337.3,227.6,340.4,192,329,157.7"/>
			<g>
				<path class="st2" d="M191.9,103.5c16.4,5,20.8,2.2,39.1,5.2c3.8-6.1,7.4-13,10.5-20.6C214.9,91.5,191.9,103.5,191.9,103.5"/>
				<path class="st2" d="M178.5,118.3c0,0,10.6,11.2,13,13.8c0,0,5.2,2.7,13.5,8.2c6.1-5.6,13.7-13.4,21-23.9
					c-16.1-1.8-29.2-1.7-40.9-6.9C185,109.6,179.7,116,178.5,118.3"/>
				<path class="st2" d="M247.9,112.3c2.8,0.7,5.9,1.5,9.2,2.4c8.4,2.3,15.7,5.2,22,8.3c4.3-1.8,9.1-3.7,13.8-5.6
					c-19.4-21.5-40.5-30.1-40.5-30.1c-3,0.1-6.1,0.3-9.1,0.6C243.5,93.6,244.2,103.2,247.9,112.3"/>
				<path class="st2" d="M268.9,127.3c-5.5-2.3-10.7-4.1-15.7-5.5c2.4,3.2,5.5,6,9.2,8.2C262.5,129.9,265,128.9,268.9,127.3"/>
				<path class="st2" d="M186.3,138.4c-8.4-2.6-25.1-4.9-25.1-4.9c-1.4,0.6-10.7,5.6-10.7,5.6c7.5,5.9,13.2,12.6,17.7,19.9
					c12.2-5.3,23.5-8.4,23.5-8.4s2.6-1.6,6.7-4.8C190.9,141,186.3,138.4,186.3,138.4"/>
				<path class="st3" d="M158.6,126.8c0,0,10.3,1.6,19.7,3.5c-5.4-6.1-11.9-10.5-11.9-10.5l8.5-12.6l-17.2,8.8
					c0,0-12.4-0.9-18.9-1.1c6,3.8,11.1,8.1,11.1,8.1l-7.5,12.7L158.6,126.8z"/>
				<path class="st2" d="M227.8,282c-15.3-8.2-30.9-1.7-35.5,7.3c8.6,27,23.3,34.4,23.3,34.4c12.3-2.1,23-5.4,32.4-9.2
					C246.9,305,242.7,290,227.8,282"/>
				<path class="st2" d="M189.7,304.7c-12.2,1.6-39.7,1.7-41.3-30c0,0-3.5-6.5-3-13.8c0,0-10-4.6-14.1-17.5c0,0-9.9-5-10.1-17.2
					c-0.2-12.2,9.9-19.6,13.6-23.4c3.8-3.8,5.6-5.7,5-7.9c-0.7-2.2-4.6-11.1,3.8-20.4c4.1-4.6,10.5-8.6,17.4-12.1
					c-8.8-14.3-18-18.5-18-18.5c-1.5,1-5.1,4.2-5.1,4.2c-5.5,8.4-24.7,36.9-26.1,82.3c-1.4,45.4,14.2,70,14.2,70
					c43,29.5,78.6,24.4,78.6,24.4C198.2,318.8,193.4,312.1,189.7,304.7"/>
				<path class="st2" d="M136.3,133.4c1.1-2,4.9-8.6,4.9-8.6c-13.8-11.2-33.4-8.3-33.4-8.3c-12.8,11.8-24.3,39.9-24.3,39.9
					C112.8,126,136.3,133.4,136.3,133.4"/>
				<path class="st2" d="M156.1,108.4c3.2-1.4,14.5-6.3,14.5-6.3C161,93,164,80.9,164,80.9c-29.1,8.6-48,27.3-48,27.3
					C130.2,107.4,156.1,108.4,156.1,108.4"/>
				<path class="st2" d="M127.7,149c0.6-1.2,4.4-8.3,4.4-8.3c-28.6-3-54.1,34.4-54.1,34.4c-14.2,71,35.6,114.7,35.6,114.7
					C85.3,206.8,127.7,149,127.7,149"/>
				<path class="st2" d="M179.1,98.5c34.4-14.8,56.4-17.8,56.4-17.8c-36.4-10-62.8-2.1-62.8-2.1C168.6,93.3,179.1,98.5,179.1,98.5"
					/>
			</g>
		</g>
		<g>
			<path class="st3" d="M144.1,187.2c0,0,3.3,7,9.7,6.4C153.8,193.5,142.4,202.2,144.1,187.2"/>
			<path class="st3" d="M182.3,192.6c0,0,8.1-2.2,11.7-5.4c3.7-3.1,11-6.8,11-6.8S198.5,200.2,182.3,192.6"/>
			<path class="st3" d="M154.4,221.2c0,0-8.9-0.1-14,1.1c0,0,0.8,1.8,1.3,2.1c0,0,7-0.8,11.4-0.9L154.4,221.2z"/>
			<path class="st4" d="M161.2,241c0,0,3.4,0.6,7.1,0.1c0,0,0.2,5.7,1.9,9.5C170.3,250.6,163.6,247.5,161.2,241"/>
			<path class="st4" d="M137.2,243.2c0,0,1.9,6.2,8.5,8.8c0,0-2.2-6.1-2-9.8C143.7,242.2,139.8,243.7,137.2,243.2"/>
			<path class="st4" d="M154.5,271.3c0,0,3.6-1.2,5.2-1.4c0,0-3.9-3.3-5.7-7C154,262.9,152.3,267.3,154.5,271.3"/>
			<path class="st4" d="M168.2,261c0,0-0.9,3.6,0.8,7.8c0,0,3-0.6,5.8-0.3C174.8,268.6,171.3,265.9,168.2,261"/>
			<path class="st4" d="M323,114.8c0,0-6.5,7-9.1,21.3c-2.6,14.3,3,38.3-9.8,56.5c0,0-5.7-6-5.8-11.9c-0.1-5.9,0-14-1.9-21.3
				c0,0-3.2,10.6-9.7,14.1c0,0-6.9-10.2,0-24.6C293.6,134.6,315.8,118.3,323,114.8"/>
			<path class="st0" d="M237.1,201.7c-40,0-69.6,16.1-69.6,16.1s22.8-21.5,67.8-21.5c55.2,0,77.8,28.4,77.8,28.4
				c-6.5-22.9-19.4-30.4-29.1-43c-10.6-13.7-10.6-28.3,0.7-42.3c11.3-14.1,30.9-24.8,30.9-24.8s-35.8,14.3-49.3,19.9
				c-13.5,5.5-19.4,7.1-32.5,10.3c-13,3.2-33.5,7.3-50.2,16.9c-16.7,9.6-17.7,18.2-17.7,18.2c-4.2-6.6-2.5-12.5-2.5-12.5
				c-4.1,2.4-17,7.8-16.6,14.2c0.6,9,14,8.3,14,8.3c-4,8.1-10.2,9.7-10.2,9.7c-3.1,4.8-5.8,4.9-5.8,4.9c-0.3-0.8-1-2.7-1-2.7
				c-15.3,11.3-16.5,18.8-16.5,18.8c2.6,1.4,4.5,3.3,4.5,3.3c-1.1,0.1-5,0.4-5,0.4c-0.3,1.5,0,4.5,0,4.5c5.1,1.6,6.3,3.3,6.3,3.3
				c-1.1-0.1-5.6,0.1-5.6,0.1s1.1,4.7,6.3,4.9c5.2,0.2,8.8-4.9,8.8-4.9c-4.3-5-6.8-12.1-6.8-12.1l6-9.1c-0.6,2.3-2.2,8.4-2.2,8.4
				c5-1.5,14.1-1.8,14.1-1.8c7.6-5,16.8-10.2,16.8-10.2c-15.9,13.9-17.6,24.8-17.6,24.8c12,8.9,25.2-1,29.8-3.3
				c0,0,15.4-6.1,22.6-8.5c7.2-2.4,27.6-6.9,27.6-6.9c-36.1-0.9-63.7,13.9-63.7,13.9s15.7-18.7,63-18.7c51.9,0,81.9,32,81.9,32
				C305.4,218.2,273.6,201.7,237.1,201.7 M188.4,185c7.9-6.4,23.2-13.7,33.9-16c0,0-9.6,8.7-13,16.2c-0.4,0.8-0.9,1.7-1.6,2.7
				c3.2-0.5,7.1-1.5,7.1-1.5c-5.7,6.8-21.6,12.2-21.6,12.2c0.3-0.1,0.7-0.3,1-0.5c-3.5,1.2-7.3,1.5-11.2,0.2
				c-2.1,1.6-2.8,4.2-2.8,4.2c-2.2-2.2-4-7.2-4.5-8.7c-1.5-1.4-2.9-3.1-4.3-5.2C171.4,188.5,180.5,191.4,188.4,185"/>
			<path class="st0" d="M208.6,145.2c0,0,15.8-13.2,30.3-38.7c0,0,2.1,17.4,14.7,26.4c0,0-9.6,3.9-16.5,5.2
				C230.2,139.3,208.6,145.2,208.6,145.2"/>
			<path class="st4" d="M155.6,277.3c0,0,12.9-3.9,24.6-3.6c0,0,26.4-16.5,13-41.6c0,0,14.4-11.2,53-8.1c0,0-27.2-12-64.8,5.5
				c0,0,27.7-17.8,54.6-16.1c32.6,2,44.7,10,51.9,19.3c8.1,10.4,8.6,26,4.9,37.9c0,0-2.1-27.7-34-29.4c0,0,41.7,27-3.6,71.8
				c0,0-1.6-38.5-40.3-41.3c0,0,3.5-3.6,6.7-5.7c0,0-16.2-1.4-31.3,12.4c-14.8,13.5-7.6,19-7.6,19S160,302.4,155.6,277.3"/>
		</g>
	</g>
</g>
</svg>
