<?xml version="1.0" encoding="utf-8"?>
<!-- Generator: Adobe Illustrator 26.1.0, SVG Export Plug-In . SVG Version: 6.00 Build 0)  -->
<svg version="1.1" id="Layer_2_1_" xmlns="http://www.w3.org/2000/svg" xmlns:xlink="http://www.w3.org/1999/xlink" x="0px" y="0px"
	 viewBox="0 0 400 400" style="enable-background:new 0 0 400 400;" xml:space="preserve">
<style type="text/css">
	.st0{fill:#FFFFFF;}
	.st1{fill:#F05023;}
	.st2{fill:#0A2240;}
</style>
<g>
	<path class="st0" d="M354.8,193.9c-6.5-2.7-22.6-7.8-39.2-12.4c0.2-6.8,0.4-14.1,0.2-21.6c11.1-14,16.1-24.9,15-32.2
		c-0.6-3.9-2.7-5.6-3.4-6l-2-1.4l-2.2,1c-6.3,2.7-12.6,4.9-19.9,6.7c-9.6-3.8-19-6.9-28-9.2c6.2-21.8,6.9-36.8,2.2-44.6
		c-2.4-3.9-5.4-4.7-6.2-4.9l-2.4-0.4l-1.7,1.8c-15.9,16.9-32,26.7-40.3,31c-0.8-5.4-2.8-14.1-6.6-28.7c-4-15.2-9.9-35.1-13.3-43.1
		l-0.3-0.8l-0.3-0.3c-0.3-0.9-0.7-1.6-1.1-2.1c-0.9-1.5-2.6-3-4.7-3h0c-2.4,0-4.2,1.8-5.1,3.5l-1.2,2.3c-3.3,7.5-8.9,27.3-12.9,43.5
		c-3.6,14.6-5.4,23.5-6.2,29c-8.4-4.4-24.9-14.3-41-32.1l-1.7-1.8l-2.4,0.5c-0.9,0.2-3.8,1-6.2,4.9c-4.8,7.8-4.1,22.8,2,44.8
		c-9.4,2.4-18.6,5.4-27.6,9c-7-2.1-13.3-4.3-19.2-6.9l-2.2-0.9l-2,1.3c-0.7,0.4-2.8,2.1-3.5,6c-1.2,7.1,3.5,17.7,14,31.3
		c-0.4,8.2-0.2,16.2,0,23.6c-16.1,4.5-32,9.5-38.8,12.4c-3,1-6.4,2.9-6.4,6.6c0,3.8,3.6,5.3,5.1,5.9c0.2,0.1,0.4,0.2,0.6,0.3
		l0.3,0.1c7.2,3.1,27,8.5,42.8,12.6c0.9,5.3,1.9,10.6,3.1,16c-14.1,12.5-21.3,22.7-21.4,30.5c-0.1,4.2,1.9,6.3,2.5,6.8l1.8,1.7
		l2.4-0.7c7.8-2.2,16-3.5,24.4-4c5.5,15.2,12.3,29.4,20.3,42.2l1,1.5l1.8,0.4c19.2,4.8,38,7.8,56,9c4.4,18.3,10.5,40.3,14.1,48.4
		l1.1,2.1c0.9,1.7,2.6,3.5,5.1,3.5c2.2,0,3.8-1.5,4.8-3c0.4-0.6,0.8-1.3,1.1-2.1l0.3-0.3l0.3-0.8c3.4-8,9.9-29.3,14.4-47.9
		c17.5-1.2,35.5-4.1,53.8-8.5l1.8-0.4l1-1.5c7.5-11.9,14.4-26,20.4-42c6,0.4,14.5,1.5,24.8,4.2l2.4,0.6l1.8-1.7
		c0.6-0.6,2.5-2.7,2.4-6.8c-0.1-7.8-7.3-18.2-21.2-31c1.2-5.3,2.2-10.9,3-16.5c17.2-4.2,36.2-9.8,43.4-12.7l0.6-0.2
		c1.7-0.7,5.3-2.2,5.3-6C361,197.8,359,195.7,354.8,193.9"/>
	<path class="st1" d="M353,198.1c-7-2.9-25.2-8.6-42.1-13.1c0.3-8.6,0.5-17.4,0.2-26.5c22-27.4,13.6-33,13.6-33
		c-8,3.5-15.3,5.6-22,7.3c-10.7-4.3-22-8-33.3-10.7c13.9-45.9,0.8-48.3,0.8-48.3c-21.4,22.8-43.1,33-47.7,34.9
		c2.4-3.2-14-63-19.9-76.9c0,0-0.3-0.3-0.5-0.8c-0.3-0.8-0.5-1.3-0.8-1.6c-0.3-0.5-0.8-1.1-1.1-1.1c-0.3,0-0.8,0.5-1.1,1.1
		c-0.3,0.5-0.5,1.1-1.1,2.1c-6.2,13.9-22.4,78.6-18.7,77.8h-0.3c0-0.3-0.3-0.3-0.3-0.3s-24.4-9.6-48.3-35.9c0,0-13.1,2.4,0.6,48.5
		c-11.3,2.7-22.2,6.2-33,10.5c-6.4-1.9-13.7-4.3-21.2-7.5c0,0-8.3,5.4,12.6,32.2c-0.5,9.7-0.2,19.3,0,28.4
		c-16.9,4.6-34.8,10.2-41.8,13.2c0,0-3.5,1.1-3.5,2.4c0,1,2.1,1.6,3.2,2.1c7,2.9,27.1,8.6,45.1,13.1c1.1,7.2,2.4,14.2,4,21.2
		c-28.9,25-20.9,32.5-20.9,32.5c10.7-3,20.6-4,28.7-4.3c5.6,16.3,12.6,31.1,21,44.5c19.3,4.8,38.9,8,58.5,9.1
		c4.6,19.3,11,42.9,14.5,50.7l1.1,2.1c0.3,0.5,0.8,1.1,1.1,1.1c0.3,0,0.8-0.5,1.1-1.1c0.3-0.3,0.5-0.8,0.8-1.6
		c0.3-0.5,0.5-0.8,0.5-0.8c3.5-8,10.4-31.4,15-50.4c18.8-1.1,37.5-4.1,56.3-8.6c8.3-13.1,15.3-28.2,21.1-44.3c8,0.3,18,1.6,29,4.5
		c0,0,8-7.5-20.7-33c1.6-7,2.9-14.2,4-21.7c18-4.3,38.3-10.2,45.6-13.2c1.3-0.6,3.2-1.2,3.2-2.1C356.5,199.5,353,198.1,353,198.1"/>
	<path class="st0" d="M300,191.4c0.8-13.2,0.6-24.6,0.4-33.2c10.9-8.2,9.5-9.4,9.5-9.4c-0.9-0.7-4.6,0.2-9.8,2.1
		c0-0.8-0.1-1.5-0.1-2.3c12.2-9.9,8.8-11.1,8.8-11.1c-1.5-1-5.7,0-11.1,2l-2.4-0.7c-13-3.9-25.1-6.9-37-9.1
		c5.8-11.3,11.2-23.4,8.2-24.4c-1.7-0.7-11.3,8.5-19.2,22.5c-0.4-0.1-0.8-0.1-1.2-0.2c6-11.5,11.6-24,8.6-25
		c-1.7-0.8-11.9,8.9-19.9,23.6c-7.3-0.8-14.5-1.3-22-1.6c0.2-24.9-2.8-40.2-5.6-40.2c0,0-5.9-0.4-6.5,40c-0.1,0-0.3,0-0.4,0
		c-0.5,0-1.1,0-1.6,0c0.2-24.8-2.6-40-5.6-40c0,0-6-0.4-6.5,40.2c-6.5,0.3-12.9,0.7-19.3,1.4c-7.9-14.6-18-24.1-19.7-23.4
		c-3,1,2.6,13.4,8.6,24.8c-0.5,0.1-1,0.1-1.4,0.2c-7.8-13.9-17.3-23-19.2-22.3c-2.8,1,2.6,12.8,8.4,24.1c-12.4,2.3-25,5.4-38.6,9.5
		l-2.1,0.7c-5.4-2-9.5-3-11-2c0,0-3.6,1.2,8.7,11c0,0.7-0.1,1.5-0.1,2.3c-5.1-1.8-8.9-2.8-9.7-2c0,0-1.4,1.2,9.5,9.5
		c-0.4,8.9-0.7,20.2-0.1,33.2c-24.8,2.4-23.5,5-23.5,5c0.4,2.2,10.7,2.6,23.9,2.3c0,0.2,0,0.4,0,0.5c-21.7,2.6-19.4,4.6-19.4,4.6
		c0.2,2.2,8.7,2.6,20,2.3c1,10.6,2.7,22.1,5.5,34.1c-16.8,6.4-17.4,10-17.4,10s2.8,2.1,19.5-1.6c0.3,1,0.5,2,0.8,3
		c-8.4,3-14.7,5.7-14.4,7.2c0,0,1.2,1.9,16-1.7c4.3,14.2,10.2,29,18.1,44l1.3,2.7l3,0.5c24.4,4.8,48.8,7.7,66.8,7.7
		c18,0,42.4-3,66.7-7.8l2.9-0.5l1.3-2.7c7.5-15,13.1-29.9,17.2-44.2c15.4,3.8,16.5,1.8,16.5,1.8c0.5-1.5-6.2-4.3-15-7.4
		c0.3-1,0.5-1.9,0.8-2.9c17.5,3.8,20.3,1.7,20.3,1.7s-0.6-3.7-18.3-10.3c2.7-12,4.4-23.3,5.5-33.8c12.2,0.4,21.7,0,21.9-2.3
		c0,0,2.7-2.1-21.2-4.8c0-0.1,0-0.3,0-0.4c14.1,0.4,25.4,0,25.7-2.3C325.2,196.5,326.5,193.8,300,191.4 M255.3,135.7
		c10.9,2,21.8,4.6,33.1,7.8c-11.3,5.2-24.2,12.2-31.1,16c-1.3-4.9-4.3-9-8.5-12.1C250.2,144.9,252.6,140.6,255.3,135.7 M212.9,131.1
		c6.5,0.2,12.8,0.7,19,1.3c-1.3,2.9-2.5,6-3.5,9.2c-0.1,0-0.2,0-0.3,0l-15.6,0C212.6,138,212.8,134.5,212.9,131.1 M186.6,131.2
		c0,3.2,0,6.7,0.1,10.4l-12.8,0c-1-3.2-2.2-6.3-3.5-9.3C175.7,131.9,181.1,131.5,186.6,131.2 M147,135.5c2.6,4.8,5,9.1,6.5,11.7
		c-4.6,3.1-8,7.4-9.8,12.5c-6.8-3.8-19.9-10.8-31.3-16C124.2,140.3,135.6,137.6,147,135.5 M106.7,191.2c-0.5-11-0.4-20.8-0.1-28.7
		c11.1,6.1,28.5,10.8,36.1,12.6l0,12.8C133,188.9,119.9,190.1,106.7,191.2 M107.8,206.3c11.6-0.6,24.9-1.7,35.1-2.7l0,22.8v0.3v0.3
		c0.1,0.9,0.2,1.8,0.4,2.7c-13,3.3-22.9,6.2-30.4,8.8C110.4,227.2,108.8,216.4,107.8,206.3 M278.7,268.3c-8.4-2.6-37.1-10.1-78.1-10
		c-42.2,0-71.5,8-78.9,10.4c-1.6-4.3-2.9-8.5-4.2-12.8c8.4-2.3,19.9-6,35.8-11.7c5.1,3.6,11.8,5.8,19.1,5.7l55.8-0.1
		c7.9,0,14.7-2,19.8-5.6c15.3,5.4,26.5,9,34.8,11.2C281.5,259.8,280.2,264,278.7,268.3 M287.3,238c-7.4-2.5-17-5.3-29.6-8.5
		c0.4-1.3,0.5-2.9,0.5-4.6h0v-0.8l0-4.8l0-11.3l0-4.6c9.8,0.9,22.7,2,34.3,2.6C291.4,216,289.8,226.7,287.3,238 M293.7,190.9
		c-13.2-1.2-26.3-2.4-35.6-3.2l0-12.6c7.6-1.9,25.1-6.6,36-12.7C294.3,170.3,294.3,179.9,293.7,190.9"/>
	<path class="st2" d="M197.1,274.9l0-10.2c-7.4,0.1-14.4,0.4-20.9,0.8c2.7,2.7,4.4,6.3,4.9,10.2C186.3,275.3,191.6,275,197.1,274.9z
		 M224.9,265.5c-6.6-0.5-13.6-0.7-21.1-0.8l0,10.2c5.5,0.1,10.8,0.3,16,0.8C220.3,271.9,222,268.2,224.9,265.5z M226.3,276.4
		c13.1,1.5,24.9,4.2,34.6,7.9c3.6,1.4,7,2.9,10,4.6c2.1-4.9,3.9-9.1,5.9-14.4c-3.2-1-9.6-2.8-18.9-4.6c-6.2-1.2-13.5-2.3-22-3.2
		C230.2,267.8,227,271.7,226.3,276.4z M220.2,282.2c-5.3-0.5-10.8-0.8-16.4-0.8l0,24.8c0.2,0,0.4,0,0.6,0c1.6,0,3.2-0.1,4.8-0.1
		c8.5-0.4,17.4-1.3,26.3-2.5C229,296.9,222.2,290.2,220.2,282.2z M240.8,299.8c0.8,0.9,1.7,1.8,2.6,2.7c7.9-1.2,15.6-2.6,22.6-4
		c0.7-1.3,1.3-2.6,1.9-4c-2.7-1.5-5.9-3-9.4-4.3c-8.6-3.2-19.3-5.7-31.4-7.2C229.4,288,234.8,294,240.8,299.8z M192,306.1
		c1.5,0,3.1,0.1,4.6,0.1l0.6,0l0-24.8c-5.6,0.1-11.1,0.4-16.4,0.9c-1.9,8-8.6,14.7-15,21.4C174.6,304.8,183.6,305.7,192,306.1z
		 M173.9,283c-12,1.5-22.8,4.1-31.4,7.2c-3.6,1.4-6.7,2.9-9.5,4.4c0.7,1.3,1.3,2.6,2,3.9c7.1,1.4,14.9,2.8,22.9,4
		c0.9-0.9,1.7-1.8,2.6-2.7C166.2,294.1,171.5,288.1,173.9,283z M140.3,284.3c9.6-3.7,21.4-6.4,34.6-8c-0.8-4.7-3.9-8.5-9.8-9.8
		c-8.5,0.9-16,2.1-22.2,3.3c-8.7,1.7-15.6,3.6-19,4.6c1.9,4.8,4,9.6,6.2,14.4C133.2,287.3,136.6,285.7,140.3,284.3z M148.8,226.4
		c1.1,10.5,11.8,17.4,23.6,17.4l55.8-0.1c11.5,0,21.4-4.8,23.6-15.3c0.3-1.3,0.5-2.7,0.5-4.3l0-16.1h-0.8c-6.7,0-12.6,1.6-17.4,5.4
		c-4.6,3.2-6.2,6.7-6.2,6.7l-53.9,0.1l0-24.4l0-24.4l53.9-0.1l0.3,12.1c12.3,0,23.9-5.4,23.8-17.5v-0.5c0-12.3-11.5-17.7-23.9-17.7
		l-55.8,0.1c-11.8,0-22.5,7-23.6,17.7l0,30.3L148.8,226.4z"/>
</g>
</svg>
