<?xml version="1.0" encoding="utf-8"?>
<!-- Generator: Adobe Illustrator 26.1.0, SVG Export Plug-In . SVG Version: 6.00 Build 0)  -->
<svg version="1.1" id="Layer_2_1_" xmlns="http://www.w3.org/2000/svg" xmlns:xlink="http://www.w3.org/1999/xlink" x="0px" y="0px"
	 viewBox="0 0 400 400" style="enable-background:new 0 0 400 400;" xml:space="preserve">
<style type="text/css">
	.st0{fill:#E03A3E;}
	.st1{fill:#C4CED4;}
	.st2{fill:#002B5C;}
	.st3{fill:#FFFFFF;}
	.st4{fill-rule:evenodd;clip-rule:evenodd;fill:#FFFFFF;}
</style>
<g>
	<path class="st0" d="M363.7,195.6c-2.4-6.7-8.9-19.8-4.6-30.2c3.1-7.6,6.9-10.2,6.6-21.5c-2.1-24.5-19.5-29.7-23.3-30.2
		c-8.3-1-13,4.3-13.1,8.4c-0.1,4,1.2,5.9,4.2,8.1c0,0-1.4-7,5.1-6.2c4.4,0.6,6.8,6,4.7,9.8c-5.2,7-13.7,3.8-18.9-2.2
		c-3.8-3.7-12.1-14.2-28.1-14.3c-25.2-0.1-32.5,20.2-50.9,13.7c-7-2.7-10.9-9.2-6.7-17.2c3.4-4.5,8.7-5.5,12.3-3.4
		c2.7,2.1,4.2,5.3,3.1,8.5c-1.1,2.2-3.3,2.9-5.8,1.5c-1.8-1.3-2-3-1.2-3.7c1.5-1,2.3-0.3,2.3-0.3c-1.4-1.9-2.8-2.6-5.2-1.6
		c-5.2,3.5-4.7,13.5,9.3,14c15.8-1.5,25.6-14,20.1-33.6c-4.2-10.7-19.3-38.1-73.1-37.8c-53.8-0.3-68.9,27.1-73.1,37.8
		c-5.6,19.5,4.3,32.1,20.1,33.6c14.1-0.5,14.5-10.5,9.3-14c-2.3-1-3.8-0.4-5.2,1.6c0,0,0.9-0.7,2.3,0.3c0.8,0.7,0.6,2.4-1.2,3.7
		c-2.5,1.4-4.7,0.8-5.8-1.5c-1.2-3.3,0.3-6.5,3.1-8.5c3.6-2.1,8.9-1.1,12.3,3.4c4.2,8,0.3,14.5-6.7,17.2
		c-18.3,6.5-25.6-13.8-50.9-13.7c-16,0.1-24.3,10.5-28.1,14.3c-5.2,6-13.7,9.2-18.9,2.2c-2.1-3.8,0.3-9.2,4.7-9.8
		c6.5-0.9,5.1,6.2,5.1,6.2c3-2.1,4.3-4,4.2-8.1c-0.1-4-4.8-9.3-13.1-8.4c-3.8,0.4-21.3,5.7-23.3,30.2c-0.3,11.3,3.4,13.9,6.6,21.5
		c4.3,10.5-2.1,23.5-4.6,30.2c-2.1,5.8-9.7,30.7,0.2,46.1c14.3,22.1,37.6,11.7,37.8,24.3c0.2,10.1-13.9,8.8-12.3,3.5
		c1.3-4.1,5.6-2.2,5.6-2.2c-2.3-6.2-9.6-7.6-14.1-0.3c-4.3,7-1.5,16,4.8,20.1c15.3,9.9,30.9,3.8,43-3.3c11.8-7,23.4-14.5,29.3-14.7
		c8.8-0.2,11.9,7.1,9.9,12.8c-2.1,5.8-6.9,16.7-0.5,25.4c6.5,8.7,16.2,11.3,31.4,14.3c13.5,2.6,24.9,14.9,28.2,22.4
		c3.2-7.4,14.7-19.8,28.2-22.4c15.2-2.9,24.9-5.6,31.4-14.3c6.5-8.7,1.7-19.6-0.4-25.4c-2.1-5.7,1-13,9.8-12.8
		c5.8,0.2,17.4,7.8,29.3,14.7c12.1,7.1,27.7,13.2,43,3.3c6.3-4.1,9.1-13,4.9-20.1c-4.5-7.4-11.8-5.9-14.1,0.3c0,0,4.3-1.9,5.5,2.2
		c1.6,5.2-12.5,6.5-12.3-3.5c0.2-12.7,23.6-2.3,37.8-24.3C373.5,226.3,365.9,201.4,363.7,195.6"/>
	<path class="st1" d="M358.9,197.4c-0.3-0.8-0.7-1.8-1.1-2.9c-3-7.5-7.9-20.1-3.4-31.1c1-2.3,1.9-4.2,2.8-5.8
		c2.1-4,3.5-6.7,3.4-13.4c-2-22.7-18.6-25.3-18.8-25.3c-0.9-0.1-1.7-0.1-2.4,0c3.6,0.6,6.7,2.9,8.4,6.2c1.8,3.6,1.8,7.8,0,11.2
		l-0.2,0.3l-0.2,0.3c-2.8,3.8-6.6,5.9-11,6.1c-5.4,0.2-11.3-2.7-15.8-7.8c-0.4-0.4-0.8-0.8-1.3-1.3c-4.1-4.2-10.9-11.3-23.1-11.4
		c-10.7-0.1-17.8,4.1-24.6,8.1c-8,4.7-16.2,9.5-28,5.4l-0.1,0l-0.1,0c-5.2-2.1-9-5.7-10.7-10.2c-1.2-3.1-1.9-8.1,1.3-14.2l0.2-0.4
		l0.3-0.3c4.7-6.3,12.9-8.4,19-4.8l0.3,0.2l0.3,0.2c4.8,3.7,6.7,9.2,4.8,14.4l-0.1,0.3l-0.2,0.3c-0.3,0.5-0.6,1-0.9,1.5
		c4-1.2,7.1-3.4,9.2-6.5c3.3-4.8,3.9-11.5,1.7-19.4c-5.2-13-21-34.5-68.2-34.3c-47.2-0.3-62.9,21.2-68.1,34.3
		c-2.2,7.9-1.6,14.6,1.7,19.4c2.1,3.1,5.2,5.3,9.2,6.5c-0.3-0.5-0.6-0.9-0.9-1.5l-0.1-0.3l-0.1-0.3c-1.9-5.2,0-10.7,4.8-14.4
		l0.3-0.2l0.3-0.2c6.2-3.6,14.3-1.5,19,4.8l0.3,0.3l0.2,0.4c3.2,6.1,2.5,11.1,1.3,14.2c-1.7,4.5-5.5,8.2-10.7,10.2l-0.1,0l-0.1,0
		c-11.8,4.1-20-0.7-28-5.4c-6.8-4-13.8-8.1-24.6-8.1c-12.2,0.1-19,7.1-23.1,11.4c-0.4,0.5-0.9,0.9-1.3,1.3c-4.5,5.1-10.4,8-15.8,7.8
		c-4.4-0.2-8.2-2.3-11-6.1l-0.2-0.3l-0.2-0.3c-1.8-3.4-1.9-7.6,0-11.2c1.7-3.4,4.8-5.7,8.4-6.2c-0.7-0.1-1.5-0.1-2.3,0
		c-0.2,0-16.8,2.6-18.7,25.3c-0.1,6.7,1.3,9.4,3.4,13.4c0.9,1.6,1.9,3.5,2.8,5.8c4.5,11-0.4,23.6-3.4,31.1c-0.4,1-0.8,2-1.1,2.9
		c-3.6,10-7.8,30-0.3,41.5c6.7,10.4,15.5,12.3,23.2,14c6.8,1.5,15.3,3.3,15.4,13.1c0.1,5.2-2.5,9.5-6.9,11.6c-4.4,2-10,1.5-13.2-1.3
		c-1.3-1.1-2.1-2.5-2.5-4c-1,4.1,1,8.5,4.3,10.6c10.4,6.8,22,5.7,37.5-3.4l5.7-3.4c12.3-7.4,20.1-11.9,26.1-12
		c5.6-0.2,10.2,2,13.1,5.9c2.8,3.9,3.5,9.2,1.8,13.8l-0.5,1.3c-2,5.3-5,13.4-0.7,19.2c5.1,6.8,12.8,9.3,28.2,12.3
		c11.4,2.2,21.3,10.3,27.2,17.8c5.9-7.5,15.8-15.6,27.2-17.8c15.4-3,23.1-5.5,28.2-12.3c4.3-5.8,1.3-13.8-0.7-19.2l-0.5-1.3
		c-1.7-4.6-1-9.9,1.8-13.8c2.9-4,7.5-6.1,13.1-5.9c6,0.2,13.8,4.7,26.1,12l5.7,3.4c15.5,9.1,27.1,10.2,37.5,3.4
		c3.2-2.1,5.3-6.5,4.2-10.6c-0.4,1.5-1.2,2.9-2.5,4c-3.2,2.8-8.8,3.4-13.2,1.3c-4.4-2.1-7-6.4-6.9-11.6c0.2-9.8,8.6-11.6,15.5-13.1
		c7.7-1.7,16.5-3.6,23.2-14C366.6,227.3,362.5,207.3,358.9,197.4"/>
	<path class="st2" d="M354,199.1c-0.3-0.8-0.7-1.7-1.1-2.7c-3.3-8.3-8.7-22.1-3.3-35c1.1-2.5,2.1-4.6,3-6.3c2-3.7,2.9-5.4,2.8-10.6
		c-0.3-3.3-1-6.1-1.8-8.4c-0.3,0.9-0.7,1.8-1.2,2.7l-0.2,0.3l-0.2,0.3l-0.2,0.3l-0.2,0.3c-3.7,5.1-9.1,8-15,8.2
		c-6.9,0.3-14.2-3.2-19.7-9.3c-0.4-0.4-0.9-0.9-1.3-1.3c-3.7-3.9-9.4-9.7-19.4-9.8c-9.3-0.1-15.4,3.5-21.9,7.3
		c-8.1,4.8-18.3,10.7-32.3,5.8l-0.1,0c0,0-0.1,0-0.2-0.1l-0.1,0c-6.6-2.6-11.5-7.3-13.7-13.2c-1.5-4.1-2.5-10.6,1.6-18.4l0.2-0.4
		l0.2-0.4l0.3-0.3l0.2-0.3c6.2-8.4,17.3-11.1,25.8-6.2l0.3,0.1l0.3,0.2l0.3,0.2c0,0,0.3,0.2,0.3,0.2c3.2,2.4,5.4,5.5,6.6,8.9
		c1.5-4,0.8-8.8-0.2-12.4c-4.8-11.7-19.4-31-63.3-30.8c-43.9-0.2-58.4,19-63.2,30.8c-1,3.7-1.7,8.4-0.2,12.4
		c1.2-3.4,3.4-6.5,6.6-8.9l0.3-0.2l0.3-0.2l0.3-0.2l0.3-0.1c8.4-4.9,19.5-2.2,25.8,6.2l0.3,0.3l0.3,0.3l0.2,0.4l0.2,0.4
		c4.1,7.8,3.1,14.3,1.5,18.4c-2.2,5.9-7.1,10.6-13.7,13.2l-0.1,0c0,0-0.1,0-0.2,0.1l-0.1,0c-14,4.9-24.2-1-32.3-5.8
		c-6.5-3.8-12.6-7.4-21.9-7.3c-10,0.1-15.6,5.9-19.4,9.8c-0.4,0.4-0.9,0.9-1.3,1.3c-5.5,6.1-12.8,9.6-19.7,9.4
		c-5.9-0.2-11.3-3.1-15-8.2l-0.2-0.3l-0.2-0.3l-0.2-0.3l-0.2-0.3c-0.5-0.9-0.9-1.8-1.2-2.7c-0.9,2.3-1.5,5.1-1.8,8.4
		c-0.1,5.2,0.8,6.9,2.8,10.6c0.9,1.7,2,3.7,3,6.3c5.3,12.9-0.1,26.7-3.3,35c-0.4,1-0.8,2-1,2.7c-3.1,8.5-7.2,27.1-0.8,36.9
		c5.5,8.6,12.5,10.1,20,11.7c6.8,1.5,19.3,4.2,19.5,18.1c0.1,7-3.5,13.1-9.5,16.1c5.9,0.1,12.6-2.2,20.8-7c0,0,5.7-3.4,5.6-3.3
		c13.4-8,21.4-12.6,28.6-12.8c7.3-0.2,13.6,2.7,17.5,8.1c3.8,5.2,4.7,12.4,2.4,18.6c0,0-0.5,1.3-0.5,1.4c-1.7,4.5-4,10.7-1.4,14.2
		c3.7,5,9.3,7.3,25.1,10.3c9.2,1.8,18.6,7.3,26.2,15c7.6-7.8,17-13.3,26.2-15c15.7-3,21.4-5.3,25.1-10.3c2.6-3.5,0.3-9.7-1.4-14.2
		c-0.2-0.6-0.4-1.1-0.5-1.4l0,0.1c-2.3-6.2-1.3-13.4,2.4-18.6c3.9-5.4,10.1-8.3,17.5-8.1c7.3,0.2,15.2,4.8,28.6,12.8l2.8,1.7
		c1.2,0.7,2.1,1.3,2.9,1.8l-0.1-0.1c8.2,4.8,14.9,7.1,20.8,7c-6-3-9.6-9.1-9.5-16.1c0.2-13.9,12.8-16.7,19.5-18.1
		c7.4-1.6,14.4-3.1,20-11.7C361.2,226.2,357,207.6,354,199.1"/>
	<path class="st0" d="M200.2,91.7c-14.6,0-26.4-3-26.5-6.7c-0.1-3.7,11.8-6.7,26.5-6.7c14.8,0,26.7,3,26.6,6.7
		C226.7,88.7,214.8,91.7,200.2,91.7 M200,76.5c-18.5,0-33.3,4.4-33.1,9.8c0.2,5.4,15,9.8,33.1,9.8c18.1,0,32.9-4.4,33.1-9.8
		C233.3,80.9,218.5,76.5,200,76.5"/>
	<path class="st1" d="M187.6,79.4c-0.4,6.5,12.3,8.3,14.8,4.9c-3.9,0.2-5.5-1.6-4.9-4.2c2.8-11.2,38.9-8.6,39.7,6.1
		c0.6,10.9-17,4.9-31.1,35.2C218.4,95,244,96.4,244.2,87.4C244.6,69.2,188.6,64.1,187.6,79.4"/>
	<path class="st1" d="M234.8,207.1c-1.3-3.4-1.3-8.5,3.9-8.5c-3.7-4.8-11.5,0.7-5.6,9.5c1.8,2.8,3.1,7.4,3.4,14.9
		c0.8,15.6-17.6,15.2-12.9,38.5c-0.7-0.8-1.4-1.6-2.2-2.4c-3.6-3.6-7.4-6.4-8.7-10c-4-11.6,10.5-12,3.7-31.4
		c-7.7-22.2-30.8-3.2-42.5-26.6c-9.9-19.9,8.4-43.8,23.2-59.8c-3.1,3.2-5.7,5.8-5.4,5.5c-12.2,12-35.4,32.2-24.3,57.2
		c7.4,16.9,33.5,8.5,36.9,26.7c3.4,18.5-13.3,12.6-21.2,31.4c-1.4,3.4-4.9,7.8-7.3,11.2c-2.7,3.7-5.2,10.6-5.2,16.8
		c0,0.3,0,0.5,0,0.8c-1.3-0.1-5.3-0.9-6.2-6.2c-0.1-0.8-0.2-1.6-0.2-2.6c0-0.5,0.1-1.1,0.2-1.6c1.6-7.7,13.8-12.1,15.1-21.8
		c1.3-9.7-12-11-16.2-9.7c0,0,7.5,2.4,7.5,9.4c0,5.8-7.8,8.8-9.7,19.8c-0.9,5-0.3,12,9.9,15.1c1.3,8.8,8.2,22.7,29.5,22.6
		c24.2-0.1,29.8-17.9,29.8-25.9c0-3-0.4-6-1.3-8.8c-7.1-32.4,6.7-22.9,11.8-37.5c0.2-0.5,0.3-1,0.5-1.5
		C244.3,220.9,236.3,211,234.8,207.1z"/>
	<path class="st2" d="M198.7,287.2c-6.1,0.6-11.2,5.3-14,10.4c3.8,3.4,8.6,5.5,14,5.9V287.2z"/>
	<path class="st2" d="M215.7,262.2c-3.8-3.2-8.6-5.3-13.9-5.6v9c4.2-0.2,6.8-1.2,9.1-2.1C212.5,262.9,214,262.4,215.7,262.2"/>
	<path class="st2" d="M198.7,274.4v-5.4c-4.4-0.2-7.3-1.2-9.6-2c-2.6-0.9-4.5-1.6-7.6-0.8c-2.9,3.9-4.6,8.8-4.6,14
		c0,0.3,0,0.5,0,0.7C183.1,276.8,190.5,274.6,198.7,274.4"/>
	<path class="st2" d="M201.8,277.6v6.4c6.6,0.7,13.2,5.4,16.3,11.6c2.8-3.2,4.7-7.1,5.5-11.4C218.1,280,210.9,277.9,201.8,277.6"/>
	<path class="st3" d="M198.7,284v-6.4c-8.2,0.2-15.5,2.6-21.4,6.9c0.8,4,2.6,7.7,5.1,10.7C186.2,288.7,192.3,284.5,198.7,284"/>
	<path class="st3" d="M212.1,266.6c-2.5,0.9-5.5,2.1-10.3,2.3v5.5c9,0.2,16.3,2.3,22.1,6.1c0-0.1,0-0.3,0-0.4c0-5.5-1.9-10.5-5-14.5
		C216.5,265.1,214.4,265.7,212.1,266.6"/>
	<path class="st3" d="M190.2,263.9c2.2,0.8,4.7,1.6,8.5,1.8v-9c-5.3,0.4-10.2,2.5-13.9,5.9C186.8,262.7,188.4,263.3,190.2,263.9"/>
	<path class="st3" d="M201.8,287.3v16.3c5.3-0.3,10-2.3,13.8-5.6C213.5,293,208.1,288.1,201.8,287.3"/>
	<path class="st3" d="M86,160.4c0,0-1.2,3.3-1.6,4.1c-0.3,0.7-0.3,0.9-2.2,0.3c-3.5-1.3-6.7-6.7-6.7-6.7l4.1-0.6c0,0,1.4,3.7,4.1,5
		l2.4-6.5c0,0,3.5,5.8,4.6,5.3c1.6-0.7,2.4-4.8,2.3-6.3l1.7-0.3c0.3,2-0.9,6.4-3.2,8.7c-0.5,0.5-1.4,1-2.3,0.5
		C88.3,163.4,86,160.4,86,160.4"/>
	<path class="st3" d="M145.3,151.9c1.3,0.2,2.8,1.2,2.3,2.4c-0.7,1.6-3.3,2.5-6.4,2.2c-2.8-0.2-3.6-2.1-3.6-2.1s1.6,0.9,2.6,1
		c1.5,0.1,3.2,0.3,4-0.5c0.4-0.4,0.4-0.7,0-1l-4.2-0.7c-2.1-0.4-3.2-1.8-2.3-2.9c1-1.2,2.8-1.8,4.7-1.7c3.4,0.2,4.2,1.4,4.2,1.4
		s-4.7-0.7-5.5,0.4c-0.3,0.4,0,0.7,0.6,0.9L145.3,151.9z"/>
	<path class="st3" d="M244.1,150c-0.2-0.7-3-1.5-3-1.5l6,0c0,0-0.6,0.7-0.5,1.5c0.1,0.8,0.3,2.2,0.3,2.2c-1.5,0.4-2.6,0.5-4.2,0.5
		c-3.3,0-6.7-1.8-6.6-3.8c0-2.1,2.9-3.7,6.2-3.7c3.3,0,4.6,2,4.6,2s-1.9-0.9-4.2-0.9c-2.4,0-3.6,1.8-3.6,2.7c0,1,0.9,2.9,3.7,2.9
		c0.4,0,0.7-0.1,1.1-0.2C243.8,151.6,244.4,150.9,244.1,150"/>
	<path class="st3" d="M295,154.3c-0.2,1.4-1.7,2.3-3.3,2.1c-1.6-0.2-2.8-1.5-2.6-2.8c0.2-1.4,1.7-2.3,3.3-2.1
		C294,151.7,295.1,153,295,154.3 M292.3,150.4c-3.5-0.4-6.3,0.9-6.6,2.6c-0.2,1.8,2.2,3.8,5.7,4.2c3.5,0.5,6.4-0.8,6.6-2.6
		C298.3,152.8,295.8,150.8,292.3,150.4"/>
	<path class="st3" d="M113.1,156.9c0.4-0.9,0.8-1.8,1.3-2.4c0.5-0.5,1.6,0.6,2.5,1.9L113.1,156.9z M118.2,159.4l4.7-0.6
		c0,0-3.9-5.2-5.8-6.4c-1.6-1-2.5-1.4-3.4-0.1c-1.8,2.7-3.7,8-3.7,8l2-0.2c0,0,0.2-0.7,0.5-1.7l5.1-0.6
		C117.9,158.4,118.2,159,118.2,159.4"/>
	<path class="st3" d="M171.1,153.2l3.6-0.2c0,0-3.1-4.4-0.2-7.8c0,0-1.6-0.4-2.7,0.7c-0.7,0.7-0.9,1.8-1,3l-3.7,0.2
		c-0.2-0.9-0.6-1.8-1.6-2.2c-1.4-0.7-3,0.1-3,0.1s2,1.2,2.5,3.1c0.4,1.9-0.6,3.6-0.6,3.6s2.3-0.9,2.7-3.2l3.7-0.2
		C170.8,151.9,171.1,153.2,171.1,153.2"/>
	<path class="st3" d="M195.6,144.6c0,0-1.6-0.5-2.8,0.6c-2,1.8-1,6.6-1,6.6h3.6C195.3,151.7,192.5,147.8,195.6,144.6"/>
	<path class="st3" d="M272.7,148.2c-0.7-0.6-10.1-1-10.1-1l-0.2,1.6c0,0,0.8-0.8,1.9-0.7c0.4,0,1.3,0.1,2.3,0.2c0,0,0,0-0.1,0
		c-2.1,1.7-1.3,6.5-1.3,6.5l3.6,0.1c0,0-2.3-3.5,0-6.5c0.8,0.1,1.5,0.2,1.8,0.3c1.1,0.3,1.9,1.3,1.9,1.3S273.3,148.9,272.7,148.2"/>
	<path class="st3" d="M223,144.1c0,0-1.3-0.5-2.2,0.6c-0.6,0.7-0.9,1.8-1,3c-2.1-1.9-4-2.7-5.5-3.1c0,0,0,0,0,0l-0.1,0
		c-1.6-0.4-2.6-0.1-2.6-0.1s1.7,2,2.1,3.9c0.3,1.9-0.7,3.6-0.7,3.6s2.6-0.9,2.7-3.8c0-0.2,0-0.4,0-0.6c3.3,1.8,4.3,4.3,4.3,4.3h2.9
		C222.8,151.9,220.5,147.4,223,144.1"/>
	<path class="st3" d="M323.7,155.3c0,0-1.2-0.7-2.3,0.2c-0.7,0.6-1.2,1.7-1.5,2.9c-1.8-2.2-3.5-3.4-4.9-3.9c0,0,0,0,0,0l-0.1,0
		c-1.5-0.6-2.6-0.5-2.6-0.5s1.4,2.2,1.4,4.2c0,1.9-1.3,3.4-1.3,3.4s2.7-0.4,3.3-3.3c0-0.2,0.1-0.4,0.1-0.6c3,2.3,3.5,5,3.5,5
		l2.8,0.5C322.2,163,320.7,158.1,323.7,155.3"/>
	<path class="st4" d="M208.5,130.6c2.2-4.3,2.2-10.8,1.8-14.8v0c2.1-3.5,5.5-8.6,9.7-11.9C216.9,112.4,217.6,125.9,208.5,130.6
		 M195.8,131.9c3.5-5.9,2.3-12.6,1.2-16.4c1.9-3.2,4.9-9,5.7-13.8c0,0,5.1,4.6,5.6,13.8C202.2,128.9,195.8,131.9,195.8,131.9
		 M184.7,126.6c4.9-12.9-2.5-23-6.1-27c6.6,2.3,13.7,8.5,16.3,15.4C191,123,184.7,126.6,184.7,126.6 M225.3,97.1
		c-0.5,0.2-1,0.5-1.4,0.8c-0.1,0-0.1,0-0.2,0c-8.3,4.6-13.7,14.7-13.7,14.7c-0.6-5.8-5.4-12.5-5.4-12.5l-4.3,0.1
		c-0.8,7-4.4,12.3-4.4,12.3c-4.9-10.2-13.5-13.1-16.1-14.2c0,0-8.2-2.9-8.2-2.9s0.1,0,0.2,0.1l-0.7-0.3c0,0,21.9,16.1,8.9,36.5
		c0,0,10.9-3.8,15.4-13.2c0,0,2.9,9.1-5.7,20.2c0,0,13.4-7.2,18.5-18.7c0,0,0.7,8.2-4.4,14.6c22.9-6.3,9.6-30,26.4-39.9L225.3,97.1"
		/>
	<path class="st1" d="M89.8,174.1c10.7,0,11,10.1,11,10.1c2.9-10.5,9.3-11.5,12-11.1c2.2,0.4,11.1,2,13.8,17.4
		c-1.3-21-12.3-23-14.9-23.4c-2.7-0.5-9.2,0.6-12.2,11c0,0-0.4-10.2-11.3-10.2c-6.6,0-10,7.9-10.4,8.7c0.8,2.5,1.6,6.2,1.6,6.2
		S83,174.1,89.8,174.1z"/>
	<path class="st1" d="M75,169c0,0-8.5,5-13,8.5c0,0,2.2,1.7,3.8,4.1c4.4-3.6,11.4-6.9,11.4-6.9C77.4,175,75.8,170.1,75,169z"/>
	<g>
		<path class="st0" d="M93.6,234.3c0,0-0.6,1.3-0.7,5.2c0,0,5,3.8,10.8,3.4c0,0,0.6-2,0.7-5.2C98.6,238.2,93.6,234.3,93.6,234.3z"/>
		<path class="st0" d="M68.2,212.8L68.2,212.8c-0.5,11.8,2,24.7,15.4,33.6c0.2-1.4,0.7-5.1,0.7-5.1
			C72.5,233.5,68.8,223.1,68.2,212.8z"/>
		<path class="st0" d="M112.5,240.6c-0.3,1.8-0.3,3.2-0.7,5.1c0,0,12.6-11.9,14.7-33.9C123.1,230.5,112.5,240.6,112.5,240.6z"/>
		<path class="st3" d="M126.7,190.6c-2.7-15.4-11.6-17-13.8-17.4c-2.7-0.5-9,0.6-12,11.1c0,0-0.3-10.1-11-10.1
			c-6.8,0-10.2,8.8-10.2,8.8s-0.8-3.7-1.6-6.2c-0.3-0.9-0.6-1.6-0.8-2c0,0-7,3.3-11.4,6.9c0,0,4.6,4.6,3.4,13.9
			c-0.7,5.4-1.4,11.4-1,17.3c0.7,10.3,4.4,20.6,16.1,28.4c-11.7-22.3-1.9-56.3,2.7-57c3.8-0.6,8.4,3.3,6.7,50.1c0,0,5,3.8,10.8,3.4
			c0,0,0.9-26.2,0.4-37c-0.3-6.6-1.6-17.2,5.6-17.4c6.1-0.2,9.4,23.9,2.2,57.3c0,0,10.7-10.1,14-28.8c0.6-3.2,0.9-6.8,1-10.5
			C127.5,197.1,127.2,193.6,126.7,190.6z"/>
	</g>
	<g>
		<path class="st0" d="M335.4,215.8C335.4,215.8,335.3,215.8,335.4,215.8c0.5,11-7,22.4-17.3,23.2c-9.2,0.7-12.2-4.6-12.6-7.9
			c0,0,0,0,0,0c-0.4,5.1,2.9,14,13.3,13.1C329.6,243.2,337,229.4,335.4,215.8z"/>
		<g>
			<path class="st1" d="M320.1,171.8c5.6-0.7,9,3,8.7,6.2c0,0.5-0.1,1-0.3,1.4c0,0,0,0,0,0c1.4-1.9,3.4-12.1-6.4-13.2
				c-5-0.5-11.3,4.1-12.8,13.6C311.4,174.4,316.2,172.3,320.1,171.8z"/>
			<path class="st3" d="M335.3,215.8C335.3,215.8,335.3,215.8,335.3,215.8c-0.7-13-8.9-21.7-14.6-29.3c-4.1-5.5-1.9-9-0.5-9.8
				c1.7-1,4.4-0.7,4.9,1.4c0.3,1.2,0,3.8-2,4.2c0,0,4.2,0.7,5.4-2.8c0.1-0.4,0.2-0.9,0.3-1.4c0.2-3.2-3.1-6.9-8.7-6.2
				c-3.9,0.4-8.7,2.6-10.7,8.2c-0.7,2-1.1,4.5-1,7.4c0.3,8.1,8,15.5,11.4,19.9c3.3,4.1,6.9,13,3.7,20c-2.6,5.7-6,6.2-8.1,6.3
				c-2.1,0.1-5.4-2-4.7-4.6c0.7-2.6,4.1-3.3,4.7-2.7c0,0-2.2-2-4.3-2c-3.1,0-5.3,2.4-5.6,5.5c0,0.4,0,0.8,0,1.2
				c0.4,3.3,3.4,8.7,12.6,7.9C328.4,238.2,335.9,226.9,335.3,215.8z"/>
		</g>
	</g>
	<g>
		<path class="st1" d="M228.5,153c0,0-7.5,5.9-14.7,7.7c0,0-0.2,2.2-0.3,5.2c7.1-1.8,14-6.8,14-6.8C227.7,156.4,228.5,153,228.5,153
			z"/>
		<path class="st1" d="M213.4,171c0.1-3.2,0.1-5.2,0.1-5.2c-5.9-0.8-9.1-0.7-9.1-0.7c-2.6,6.8-2.1,15.3-2.1,15.3s0.3-4.2,2-9.5
			C204.3,171,207.6,170.2,213.4,171z"/>
		<path class="st1" d="M226.5,167.4c-0.1,1.8-0.3,3.7-0.4,5.7c5.3-0.1,8.9-2,10.3-2.9l0.7-5.8C235.7,165.2,231.7,167.2,226.5,167.4z
			"/>
		<path class="st0" d="M223.5,228.6c-9.2,0.3-10.5-9-11-14.1c0-0.1,0-0.2,0-0.3c0,2.7,0,4.6,0,5.5c0.5,5.1,1.8,14.6,11,14.1
			c9.2-0.5,8.9-12.4,8.7-15.4C232.4,221.4,230.3,228.4,223.5,228.6z"/>
		<path class="st3" d="M226.5,167.4c0.3-3.7,0.6-6.7,1-8.3c0,0-6.9,5-14,6.8c0,0,0,2-0.1,5.2c-5.8-0.9-9.1-0.1-9.1-0.1
			c-1.6,5.3-2,9.5-2,9.5s4.1-2.5,11-2.5c-0.2,13.5-1,32-0.8,36.1c0,0.1,0,0.2,0,0.3c0.5,5.1,1.8,14.4,11,14.1
			c6.8-0.2,8.9-7.2,8.7-10.2c0,0-0.7,3.6-3.6,3.3c-2.9-0.3-3.9-1.2-4.4-7.8c-0.3-4.2,0.7-21,1.5-36c8-1.9,10.5-7.6,10.5-7.6
			c-1.4,0.9-4.9,2.8-10.3,2.9C226.2,171.1,226.3,169.1,226.5,167.4z"/>
	</g>
	<g>
		<path class="st1" d="M259.2,169c0.3-1.9,0.7-3.8,1.2-5.9c0,0-12.2,3.8-15.1,5.1c0,0-0.1,2.2-0.3,5.6c0,0.2,0,0.4,0.1,0.6
			c0-0.3,0-0.5,0-0.5C251.7,170.3,258.6,169.1,259.2,169z"/>
		<g>
			<path class="st0" d="M264.3,221c0.2,3-2,10.1-8.8,10.3c-9.2,0.3-11-10.5-11.4-15.6c0-0.3-0.1-0.7-0.1-1.1c0,2.8,0,5.1,0.1,6.3
				c0.5,5.1,2.2,15.9,11.4,15.6C264.8,236.2,264.4,224,264.3,221z"/>
			<path class="st3" d="M264.3,221c0,0-0.8,3.6-3.6,3.3c-2.9-0.3-4.2-2.9-5.1-8.2c-1.1-6.6-1.8-20,3.7-47.2c0,0,0,0,0,0
				c-0.6,0.1-7.5,1.4-14.1,4.8c0,0,0,0.2,0,0.5c-0.2,4.2-1.4,31.9-1,40.2c0,0.4,0,0.8,0.1,1.1c0.5,5.1,2.2,15.9,11.4,15.6
				C262.3,231.1,264.4,224,264.3,221z"/>
		</g>
	</g>
	<g>
		<path class="st1" d="M252,158.1c2.2,0,3.9,1.7,4,3.9c1.1-1.4,1.3-3.2,1.3-4.6c0-2.2-1.9-3.9-4.2-4c-5.2-0.1-5.7,6.8-5.2,7.5
			c0.1,0.1,0.1,0.1,0.2,0.2C248.6,159.4,250.1,158.1,252,158.1z"/>
		<path class="st3" d="M256,161.9c-0.1-2.1-1.8-3.9-4-3.9c-1.9,0-3.5,1.3-3.9,3c-0.1,0.3-0.1,0.7-0.1,1c0,2.2,1.8,4.1,4,4.1
			c2.2,0,4-1.8,4-4C256,162.1,256,162,256,161.9z"/>
	</g>
	<g>
		<path class="st0" d="M296.2,227.5c-3.3,5.5-8.9,6-13.4,4.3c-3.6-1.4-6.4-4.2-7.9-6.4c-1.7-2.4-3.8-7.9-4.5-16
			c-0.1,11,2.7,18.3,4.6,21.2c1.5,2.2,4.3,5,7.9,6.4c4.5,1.7,10.2,1.3,13.4-4.3c1.8-3.2,1.8-8.4,1.1-10.6
			C297.7,223.7,297.4,225.5,296.2,227.5z"/>
		<g>
			<path class="st1" d="M291,167.2c5-0.6,11,3.4,9.8,11c-0.1,0.4-0.1,0.8-0.2,1.2c1.5-2.9,4.8-14.9-6.7-17.5
				c-5.7-1.2-17.4,3.7-21.1,22.9c-0.1,0.7-0.3,1.5-0.4,2.2c0,0,0,0,0,0C276.6,171.6,286.2,167.8,291,167.2z"/>
			<path class="st3" d="M291,167.2c-4.7,0.5-14.3,4.3-18.5,19.7c-0.3,1.2-0.6,2.4-0.9,3.7c-1.4,7.3-1.6,13.6-1.2,18.8
				c0.6,8.1,2.8,13.6,4.5,16c1.5,2.2,4.3,5,7.9,6.4c4.5,1.7,10.1,1.2,13.4-4.3c1.2-2,1.5-3.9,1.3-5.4c-0.6-4.1-4.6-6.4-4.6-6.4
				c3,4.4,1.1,8.9-4.2,9.5c-6.2,0.7-8.4-14.3-7.8-30.4c0.6-16.1,6.3-21,8.6-21.5c2.3-0.5,5.2,0.8,5.3,3.3c0,2.1-0.4,3.6-1.7,4.4
				c-1.3,0.8-3.9,0-3.9,0c0,2.5,2,4.3,3.7,4.8c1.6,0.5,6.3,0,7.7-6.4c0.1-0.4,0.2-0.8,0.2-1.2C302,170.6,296,166.7,291,167.2z"/>
		</g>
	</g>
	<g>
		<path class="st1" d="M188.5,163.6c4.4-0.4,7.2,2.3,7.6,5.1c0.6-4.6-2.1-10.5-7.8-10.3c-4.9,0.2-11.4,3-11.4,14.1
			c0,1.3,0.2,2.5,0.5,3.8c0,0,0,0,0,0C178.2,166.9,184,164,188.5,163.6z"/>
		<g>
			<path class="st0" d="M184.6,229c-8.6,0.4-11-5.4-11.1-8.6c-0.6,5.6,1.8,14.2,11.1,13.8c9.4-0.4,16.5-12.3,16.2-24.2
				C199.8,219.7,193.1,228.6,184.6,229z"/>
			<path class="st3" d="M188.6,178c-3.6-5.5-1.5-8.9-0.2-9.6c1.5-0.9,4-0.5,4.4,1.5c0.2,1.2-0.1,3.7-1.9,4c0,0,4.8,1,5.3-3.9
				c0-0.4,0-0.9-0.1-1.3c-0.5-2.8-3.3-5.5-7.6-5.1c-4.5,0.4-10.3,3.3-11,12.7c-0.1,0.7-0.1,1.4-0.1,2.1c0,7.9,6.7,15.4,9.7,19.8
				c2.8,4.2,5.8,12.9,2.7,19.7c-2.5,5.5-5.6,5.8-7.5,5.8c-1.9,0.1-4.9-2.1-4.1-4.6c0.7-2.5,3.8-3,4.3-2.4c0,0-1.9-2.1-3.8-2.1
				c-2.8-0.1-4.9,2.2-5.2,5.1c0,0.2,0,0.5,0,0.8c0.1,3.2,2.5,9,11.1,8.6c8.6-0.4,15.2-9.3,16.2-19c0.1-1,0.1-1.9,0.1-2.9
				C200.7,194.4,193.5,185.6,188.6,178z"/>
		</g>
	</g>
	<g>
		<path class="st0" d="M153.9,231.7c-6.1,4.4-16.9,4.4-19.1-1.5c-0.7-1.8-0.8-3.3-0.7-4.6c-3.3,15.7,13.3,15.6,19.6,11.3
			c7.3-4.9,14.6-19.2,14.8-43.2c0,0,0,0,0,0C167.3,214.6,160.5,227,153.9,231.7z"/>
		<g>
			<path class="st1" d="M166.1,158.7c-5.4,1.6-11.3,6.8-11.3,6.8s0.4,2.2,0.9,5.7c0,0,5.7-5.1,11.1-6.7
				C166.7,164.5,166.5,162.8,166.1,158.7z"/>
			<path class="st1" d="M136.1,172.5c5.1-3.7,10.3-4.8,10.3-4.8c0,0.1,0,0.2,0,0.3c0-0.1,0-0.2,0-0.3c0.1-2,0.2-4,0.4-6.2
				c0,0-6.6,1.4-11.8,5.1c0,0-1.3,12.2,1,23.9l0.1-0.1C135.3,180.9,136.1,172.5,136.1,172.5z"/>
			<path class="st3" d="M166.7,164.5c-5.3,1.6-11.1,6.7-11.1,6.7s3.7,19.6-0.1,34.4c0,0-12.5,9.1-9.1-37.6c0-0.1,0-0.2,0-0.3
				c0,0-5.3,1.1-10.3,4.8c0,0-0.8,8.4-0.1,17.9c1,12.7,4.7,27.2,16.7,25.8c0,0-2.6,13.1-9.6,13.5c-3.4,0.2-4.1-3.6-3.8-5.3
				c0.3-1.7,1.7-3,2.5-3.2c0,0-1.4-0.8-3-0.5c-2.4,0.4-4.5,2-4.9,5c-0.1,1.3,0,2.8,0.7,4.6c2.2,6,13,5.9,19.1,1.5
				c6.6-4.8,13.5-17.1,14.6-38.1C168.9,185.3,168.4,175.7,166.7,164.5z"/>
		</g>
	</g>
</g>
</svg>
