<?xml version="1.0" encoding="utf-8"?>
<!-- Generator: Adobe Illustrator 26.1.0, SVG Export Plug-In . SVG Version: 6.00 Build 0)  -->
<svg version="1.1" id="Layer_2_1_" xmlns="http://www.w3.org/2000/svg" xmlns:xlink="http://www.w3.org/1999/xlink" x="0px" y="0px"
	 viewBox="0 0 400 400" style="enable-background:new 0 0 400 400;" xml:space="preserve">
<style type="text/css">
	.st0{fill:#061922;}
	.st1{fill:#4D90CD;}
	.st2{fill:#FFD520;}
	.st3{fill:#FFFFFF;}
</style>
<g>
	<circle class="st0" cx="200.5" cy="200.5" r="145.5"/>
	<g>
		<path class="st1" d="M200.3,75.2c-73.6,0.4-129.5,62.5-124.8,134c4.4,66.9,60.8,117.4,126.1,116.5c65-0.9,120.4-52.5,124-119
			C329.5,135.7,273.6,74.8,200.3,75.2z M181.9,186.5l-13,2.2v-50l13-4.6V186.5z"/>
		<g>
			<polygon class="st0" points="167.6,200.4 154.6,202.8 154.6,311.8 167.6,316.3 			"/>
		</g>
	</g>
	<g>
		<polygon class="st0" points="167.6,200.4 154.6,202.8 154.6,311.8 167.6,316.3 		"/>
	</g>
	<polygon class="st2" points="198.4,118.5 198.4,118.5 198.4,118.5 	"/>
	<path class="st3" d="M198.4,118.5L198.4,118.5V194v18.5v103.6h0v4.6c0.7,0,1.4,0.1,2.1,0.1c9.8,0,19.4-1.2,28.7-3.4V189l-14.3-2.4
		v-62.7l-6.5-2.1V80.5c-1.8-0.1-3.6-0.2-5.4-0.2V120L198.4,118.5z"/>
	<path class="st2" d="M301.7,115.2c-2.6-3.1-5.3-6-8.2-8.8c-23.9-23.6-56.8-38.2-93-38.2c-36.3,0-69.1,14.6-93,38.2
		c-2.9,2.8-5.6,5.8-8.2,8.8c-19.5,23.1-31.2,52.8-31.2,85.4c0,3.4,0.1,6.7,0.4,10c0.3,4.6,0.9,9.1,1.7,13.6c0.4,2.3,0.9,4.7,1.4,7
		c4.9,20.5,14.5,39.2,27.7,54.8c2.6,3.1,5.3,6,8.2,8.8c23.9,23.6,56.8,38.2,93,38.2s69.1-14.6,93-38.2c2.9-2.8,5.6-5.8,8.2-8.8
		c13.2-15.6,22.8-34.3,27.7-54.8c0.5-2.3,1-4.6,1.4-7c0.8-4.4,1.4-9,1.7-13.6c0.2-3.3,0.4-6.6,0.4-10
		C332.9,168,321.1,138.2,301.7,115.2z M80.1,200.5c0-28.2,9.6-54.9,27.4-76.4c13.1,15.9,21.8,34.7,25.4,54.9
		c-18.7,5.7-36.4,13.8-52.8,23.8C80.2,202.1,80.1,201.3,80.1,200.5z M84,231c-1.2-4.8-2.2-9.7-2.9-14.6
		c10.8-7.1,22.3-13.2,34.3-18.3c6.2-2.6,12.6-5,19-7c0.2,3.1,0.4,6.2,0.4,9.4c0,10.4-1.3,20.7-3.9,30.5
		c-4.4,16.7-12.3,32.3-23.4,45.9C96.4,263.4,88.4,247.8,84,231z M188.3,121.8l-6.5,2.1v62.7l-14.3,2.4v127.3
		c-19.4-5.5-37.2-15.8-51.9-30.4c13.2-15.6,22.8-34.3,27.7-54.8c2.3-9.8,3.5-20,3.5-30.5c0-4.3-0.2-8.6-0.6-12.8
		c7.5-1.9,15-3.3,22.7-4.4v-12.2c-8.3,1.1-16.4,2.6-24.4,4.6c-4.3-22.8-14.5-43.6-28.9-60.6c19.8-19.7,45.2-31.6,72.7-34.4V121.8z
		 M200.5,320.8c-0.7,0-1.4,0-2.1-0.1l0-108.3V194v-75.5l-4.7,1.5V80.4c2.2-0.1,4.5-0.2,6.8-0.2c32,0,62.1,12.4,84.8,35
		c-14.4,17.1-24.6,37.8-28.9,60.6c-13.4-3.3-27.3-5.5-41.5-6.4v12.1c13.5,0.9,26.8,3,39.8,6.3c-0.4,4.2-0.6,8.5-0.6,12.8
		c0,10.5,1.2,20.7,3.5,30.5c4.8,20.5,14.5,39.2,27.7,54.8C262.6,308.4,232.5,320.8,200.5,320.8z M316.9,231
		c-4.4,16.7-12.3,32.3-23.4,45.9c-11.2-13.5-19.1-29.1-23.5-45.9c-2.6-9.8-3.9-20.1-3.9-30.5c0-3.2,0.1-6.3,0.4-9.4
		c6.4,2,12.8,4.4,19,7c12,5.1,23.5,11.2,34.3,18.3C319.2,221.4,318.2,226.2,316.9,231z M320.8,202.8c-16.4-10-34.1-18.1-52.8-23.8
		c3.6-20.2,12.3-39,25.4-54.9c17.7,21.5,27.4,48.2,27.4,76.4C320.9,201.3,320.8,202.1,320.8,202.8z"/>
</g>
</svg>
